<?xml version="1.0" encoding="UTF-8"?>
<svg version="1.1" xmlns="http://www.w3.org/2000/svg" width="236" height="78">
<path d="M0 0 C77.88 0 155.76 0 236 0 C236 25.74 236 51.48 236 78 C158.12 78 80.24 78 0 78 C0 52.26 0 26.52 0 0 Z " fill="#FDFDFD" transform="translate(0,0)"/>
<path d="M0 0 C2.64 0 5.28 0 8 0 C8 6.93 8 13.86 8 21 C9.98 21 11.96 21 14 21 C13.67 22.32 13.34 23.64 13 25 C19.27 27.31 25.54 29.62 32 32 C31.67 34.31 31.34 36.62 31 39 C30.11248047 38.80083984 30.11248047 38.80083984 29.20703125 38.59765625 C28.41683594 38.42105469 27.62664063 38.24445312 26.8125 38.0625 C26.03519531 37.88847656 25.25789063 37.71445312 24.45703125 37.53515625 C21.97736332 36.99506959 19.48852108 36.49770422 17 36 C19.64 39.63 22.28 43.26 25 47 C23.37660195 48.70884005 21.70680947 50.37446717 20 52 C19.34 52 18.68 52 18 52 C15.47121327 48.79610731 13.28510237 45.38533684 11 42 C10.67 46.62 10.34 51.24 10 56 C7.36 56 4.72 56 2 56 C1.67 49.07 1.34 42.14 1 35 C-0.65 35 -2.3 35 -4 35 C-3.67 33.68 -3.34 32.36 -3 31 C-3.54003662 30.823479 -4.08007324 30.64695801 -4.63647461 30.46508789 C-7.07118164 29.66733505 -9.50434758 28.86498121 -11.9375 28.0625 C-12.78763672 27.78470703 -13.63777344 27.50691406 -14.51367188 27.22070312 C-15.32255859 26.95322266 -16.13144531 26.68574219 -16.96484375 26.41015625 C-17.7137085 26.16402588 -18.46257324 25.91789551 -19.23413086 25.66430664 C-21 25 -21 25 -22 24 C-21.71269945 21.66055264 -21.38063221 19.3260857 -21 17 C-20.40832031 17.13277344 -19.81664062 17.26554687 -19.20703125 17.40234375 C-18.41683594 17.57894531 -17.62664063 17.75554688 -16.8125 17.9375 C-15.64654297 18.19853516 -15.64654297 18.19853516 -14.45703125 18.46484375 C-11.97736332 19.00493041 -9.48852108 19.50229578 -7 20 C-9.64 16.37 -12.28 12.74 -15 9 C-13.37660195 7.29115995 -11.70680947 5.62553283 -10 4 C-9.34 4 -8.68 4 -8 4 C-5.47121327 7.20389269 -3.28510237 10.61466316 -1 14 C-0.67 9.38 -0.34 4.76 0 0 Z " fill="#35BBF8" transform="translate(26,10)"/>
<path d="M0 0 C4.91988856 1.21276973 9.39194227 2.71363189 13.984375 4.86328125 C13.654375 7.17328125 13.324375 9.48328125 12.984375 11.86328125 C12.39269531 11.73050781 11.80101563 11.59773438 11.19140625 11.4609375 C10.40121094 11.28433594 9.61101563 11.10773437 8.796875 10.92578125 C8.01957031 10.75175781 7.24226563 10.57773437 6.44140625 10.3984375 C3.96173832 9.85835084 1.47289608 9.36098547 -1.015625 8.86328125 C1.624375 12.49328125 4.264375 16.12328125 6.984375 19.86328125 C5.36097695 21.5721213 3.69118447 23.23774842 1.984375 24.86328125 C1.324375 24.86328125 0.664375 24.86328125 -0.015625 24.86328125 C-2.54441173 21.65938856 -4.73052263 18.24861809 -7.015625 14.86328125 C-7.345625 19.48328125 -7.675625 24.10328125 -8.015625 28.86328125 C-10.655625 28.86328125 -13.295625 28.86328125 -16.015625 28.86328125 C-16.29194021 26.28033475 -16.53733774 23.70053682 -16.765625 21.11328125 C-16.84683594 20.38367188 -16.92804687 19.6540625 -17.01171875 18.90234375 C-17.30377586 15.33275683 -17.34533561 13.34151015 -15.28125 10.34765625 C-13.015625 8.86328125 -13.015625 8.86328125 -9.015625 8.86328125 C-8.685625 8.20328125 -8.355625 7.54328125 -8.015625 6.86328125 C-6.695625 6.86328125 -5.375625 6.86328125 -4.015625 6.86328125 C-4.345625 5.21328125 -4.675625 3.56328125 -5.015625 1.86328125 C-2.015625 -0.13671875 -2.015625 -0.13671875 0 0 Z " fill="#35BAF7" transform="translate(44.015625,37.13671875)"/>
<path d="M0 0 C1.32 0 2.64 0 4 0 C4.33 1.65 4.66 3.3 5 5 C5.763125 4.95875 6.52625 4.9175 7.3125 4.875 C10 5 10 5 13 7 C13.66 6.34 14.32 5.68 15 5 C17.92091393 4.62552385 19.39590072 4.5625488 21.8125 6.3125 C23 8 23 8 23 11 C22.01 11.33 21.02 11.66 20 12 C20.66 12 21.32 12 22 12 C22.33 12.66 22.66 13.32 23 14 C23.33 11.36 23.66 8.72 24 6 C28.09959531 4.90677458 30.84347947 5.12494305 35 6 C35 8.97 35 11.94 35 15 C33.68 15 32.36 15 31 15 C31 12.69 31 10.38 31 8 C30.01 8 29.02 8 28 8 C28 9.134375 28 10.26875 28 11.4375 C28 12.95833333 28 14.47916667 28 16 C29.65 16.33 31.3 16.66 33 17 C29.04886452 18.30351387 25.06175257 18.12612281 20.953125 18.09765625 C20.18192322 18.0962413 19.41072144 18.09482635 18.6161499 18.09336853 C16.16072662 18.08778534 13.70539558 18.07523595 11.25 18.0625 C9.58203257 18.05748283 7.91406371 18.0529203 6.24609375 18.04882812 C2.16402713 18.03782141 -1.91797081 18.02056836 -6 18 C-6.33 17.34 -6.66 16.68 -7 16 C-5.35 16 -3.7 16 -2 16 C-0.5192152 13.0384304 -0.64685963 10.16493705 -0.4375 6.875 C-0.35371094 5.59367187 -0.26992187 4.31234375 -0.18359375 2.9921875 C-0.09271484 1.51105469 -0.09271484 1.51105469 0 0 Z " fill="#EEBEBE" transform="translate(186,32)"/>
<path d="M0 0 C1.32 0 2.64 0 4 0 C4.33 1.65 4.66 3.3 5 5 C5.804375 5.144375 6.60875 5.28875 7.4375 5.4375 C10 6 10 6 11 7 C11.26293056 11.03160191 11.29404844 12.55892734 9 16 C9.56509277 15.98952637 10.13018555 15.97905273 10.71240234 15.96826172 C13.26655653 15.92675212 15.82063982 15.9006904 18.375 15.875 C19.26445312 15.85824219 20.15390625 15.84148438 21.0703125 15.82421875 C21.92109375 15.81777344 22.771875 15.81132813 23.6484375 15.8046875 C24.82672119 15.78897705 24.82672119 15.78897705 26.02880859 15.77294922 C28 16 28 16 30 18 C25.08871933 18.04949353 20.17758434 18.08576382 15.26611328 18.10986328 C13.59584015 18.1199115 11.92558458 18.13355236 10.25537109 18.15087891 C7.85249496 18.17517926 5.44985173 18.18649487 3.046875 18.1953125 C2.30193787 18.20563507 1.55700073 18.21595764 0.78948975 18.22659302 C-2.96654654 18.22740309 -5.84799204 18.15517827 -9 16 C-10.8125 14.1875 -10.8125 14.1875 -12 12 C-11.75925978 8.62963689 -11.41201979 7.41201979 -9 5 C-6.5625 4.6875 -6.5625 4.6875 -4 5 C-2.1875 6.5 -2.1875 6.5 -1 8 C-0.67 5.36 -0.34 2.72 0 0 Z " fill="#F5CFCF" transform="translate(149,32)"/>
<path d="M0 0 C3.09162264 1.38589981 4.49183541 2.49183541 7 5 C4.36 8.63 1.72 12.26 -1 16 C0.918125 15.319375 2.83625 14.63875 4.8125 13.9375 C10.625 11.875 10.625 11.875 14 13 C14.33 15.31 14.66 17.62 15 20 C2.1543317 24.91468097 2.1543317 24.91468097 -4 23 C-4.33 22.34 -4.66 21.68 -5 21 C-4.67 20.34 -4.34 19.68 -4 19 C-5.65 18.67 -7.3 18.34 -9 18 C-9.50509438 13.32787697 -8.68751585 10.91854716 -5.80078125 7.20703125 C-5.37152344 6.68496094 -4.94226562 6.16289062 -4.5 5.625 C-4.07074219 5.07972656 -3.64148437 4.53445312 -3.19921875 3.97265625 C-2.14568175 2.63817606 -1.07455786 1.31761261 0 0 Z " fill="#F71162" transform="translate(43,13)"/>
<path d="M0 0 C1.32 0 2.64 0 4 0 C4.33 4.29 4.66 8.58 5 13 C5.99 13 6.98 13 8 13 C8 12.01 8 11.02 8 10 C7.34 10 6.68 10 6 10 C6.33 8.68 6.66 7.36 7 6 C8.32 5.67 9.64 5.34 11 5 C11.33 5.66 11.66 6.32 12 7 C11.34 7 10.68 7 10 7 C10.99 8.485 10.99 8.485 12 10 C12.515625 9.154375 13.03125 8.30875 13.5625 7.4375 C14.366875 6.633125 15.17125 5.82875 16 5 C22.21052632 5.21052632 22.21052632 5.21052632 24 7 C24.04080783 8.99958364 24.04254356 11.00045254 24 13 C23.01 13.33 22.02 13.66 21 14 C21 14.66 21 15.32 21 16 C22.32 16.66 23.64 17.32 25 18 C16.09 18 7.18 18 -2 18 C-1.34 12.06 -0.68 6.12 0 0 Z " fill="#EFABAB" transform="translate(78,32)"/>
<path d="M0 0 C0.33 0.66 0.66 1.32 1 2 C0.67 2.66 0.34 3.32 0 4 C1.32 4.33 2.64 4.66 4 5 C4.77734375 7.07421875 4.77734375 7.07421875 5 10 C3.60718576 12.48031429 2.26159454 14.56789352 0.5625 16.8125 C-0.0881543 17.7087207 -0.0881543 17.7087207 -0.75195312 18.62304688 C-1.82125402 20.09186679 -2.90888711 21.54730974 -4 23 C-7.78496138 21.48601545 -8.0072198 20.9855604 -10 17 C-6.535 12.05 -6.535 12.05 -3 7 C-4.26457031 7.433125 -4.26457031 7.433125 -5.5546875 7.875 C-6.65039062 8.24625 -7.74609375 8.6175 -8.875 9 C-9.96554687 9.37125 -11.05609375 9.7425 -12.1796875 10.125 C-15 11 -15 11 -17 11 C-18.76462683 7.91190305 -19 6.76687864 -19 3 C-6.1543317 -1.91468097 -6.1543317 -1.91468097 0 0 Z " fill="#D90FFA" transform="translate(23,40)"/>
<path d="M0 0 C0.33 1.32 0.66 2.64 1 4 C2.98 4 4.96 4 7 4 C6.6596875 4.8971875 6.6596875 4.8971875 6.3125 5.8125 C6.209375 6.534375 6.10625 7.25625 6 8 C7.35444301 9.77190909 7.35444301 9.77190909 9 11 C8.01 11.495 8.01 11.495 7 12 C7 13.65 7 15.3 7 17 C5.68 17 4.36 17 3 17 C2.34 18.32 1.68 19.64 1 21 C-0.32 21 -1.64 21 -3 21 C-3.99 21.33 -4.98 21.66 -6 22 C-6 20.68 -6 19.36 -6 18 C-7.65 18 -9.3 18 -11 18 C-10.773125 17.401875 -10.54625 16.80375 -10.3125 16.1875 C-10.209375 15.465625 -10.10625 14.74375 -10 14 C-11.35444301 12.22809091 -11.35444301 12.22809091 -13 11 C-12.01 10.67 -11.02 10.34 -10 10 C-10.33 8.35 -10.66 6.7 -11 5 C-9.68 5 -8.36 5 -7 5 C-7 3.68 -7 2.36 -7 1 C-5.824375 1.309375 -5.824375 1.309375 -4.625 1.625 C-3.75875 1.74875 -2.8925 1.8725 -2 2 C-1.34 1.34 -0.68 0.68 0 0 Z " fill="#F6F4FA" transform="translate(33,27)"/>
<path d="M0 0 C1.32 0 2.64 0 4 0 C4.22786458 2.05078125 4.45572917 4.1015625 4.68359375 6.15234375 C4.81886614 8.01140229 4.81886614 8.01140229 6 9 C6.33 6.03 6.66 3.06 7 0 C8.32 0 9.64 0 11 0 C11.144375 1.134375 11.28875 2.26875 11.4375 3.4375 C11.61171478 6.80777201 11.61171478 6.80777201 13 8 C13.33 5.36 13.66 2.72 14 0 C15.65 0 17.3 0 19 0 C19.78287497 6.10642479 17.10825151 10.00459579 14 15 C12.68 14.67 11.36 14.34 10 14 C10 13.01 10 12.02 10 11 C9.34 11 8.68 11 8 11 C7.67 12.32 7.34 13.64 7 15 C5.1875 14.875 5.1875 14.875 3 14 C-0.24524216 9.24803827 -0.28643366 5.53771745 0 0 Z " fill="#111111" transform="translate(117,32)"/>
<path d="M0 0 C3.875 1.875 3.875 1.875 5 3 C5.07325168 5.86267567 5.09238205 8.700719 5.0625 11.5625 C5.05798828 12.36880859 5.05347656 13.17511719 5.04882812 14.00585938 C5.03700518 16.00393756 5.01906914 18.00197783 5 20 C2.36 20 -0.28 20 -3 20 C-3.27631521 17.4170535 -3.52171274 14.83725557 -3.75 12.25 C-3.83121094 11.52039062 -3.91242187 10.79078125 -3.99609375 10.0390625 C-4.30232798 6.29619973 -4.38715432 4.49080194 -2.015625 1.484375 C-1.35046875 0.99453125 -0.6853125 0.5046875 0 0 Z " fill="#647B86" transform="translate(31,46)"/>
<path d="M0 0 C2.64 0 5.28 0 8 0 C8.08089542 2.77141717 8.14044062 5.54047819 8.1875 8.3125 C8.22520508 9.49102539 8.22520508 9.49102539 8.26367188 10.69335938 C8.27817383 11.8293457 8.27817383 11.8293457 8.29296875 12.98828125 C8.31653442 14.03302612 8.31653442 14.03302612 8.34057617 15.09887695 C7.90238443 17.54489783 6.86562642 18.42702086 5 20 C1.125 18.125 1.125 18.125 0 17 C-0.07325168 14.13732433 -0.09238205 11.299281 -0.0625 8.4375 C-0.05798828 7.63119141 -0.05347656 6.82488281 -0.04882812 5.99414062 C-0.03700518 3.99606244 -0.01906914 1.99802217 0 0 Z " fill="#637B86" transform="translate(26,10)"/>
<path d="M0 0 C0.33 2.31 0.66 4.62 1 7 C-11.8456683 11.91468097 -11.8456683 11.91468097 -18 10 C-19 8 -19 8 -18.49609375 6.05078125 C-16.2501371 2.97212005 -13.62343753 2.40387804 -10.0625 1.1875 C-9.11213867 0.84428711 -9.11213867 0.84428711 -8.14257812 0.49414062 C-4.84880638 -0.63841811 -3.38518229 -1.1283941 0 0 Z " fill="#D910FA" transform="translate(57,26)"/>
<path d="M0 0 C4.17356978 0.18750821 5.64254113 0.61903848 8.5546875 3.72265625 C9.34571779 4.82350674 10.11890953 5.93736538 10.875 7.0625 C11.2771875 7.63033203 11.679375 8.19816406 12.09375 8.78320312 C13.07820497 10.17784767 14.04130553 11.58752348 15 13 C13.37660195 14.70884005 11.70680947 16.37446717 10 18 C9.34 18 8.68 18 8 18 C6.32764775 15.97119611 4.81302365 13.96240019 3.3125 11.8125 C2.88388672 11.23435547 2.45527344 10.65621094 2.01367188 10.06054688 C0.01753392 7.21580921 -1.04729199 5.6003678 -0.76953125 2.07421875 C-0.51558594 1.38972656 -0.26164062 0.70523438 0 0 Z " fill="#0DE7FE" transform="translate(36,44)"/>
<path d="M0 0 C1.08861328 0.185625 1.08861328 0.185625 2.19921875 0.375 C2.9765625 2.44921875 2.9765625 2.44921875 3.19921875 5.375 C1.80640451 7.85531429 0.46081329 9.94289352 -1.23828125 12.1875 C-1.88893555 13.0837207 -1.88893555 13.0837207 -2.55273438 13.99804688 C-3.62203527 15.46686679 -4.70966836 16.92230974 -5.80078125 18.375 C-8.42265619 17.32625002 -9.59449486 16.72568687 -11.05078125 14.25 C-11.29828125 13.63125 -11.54578125 13.0125 -11.80078125 12.375 C-10.42396097 10.35926312 -9.02703916 8.3645674 -7.61328125 6.375 C-7.22591797 5.80265625 -6.83855469 5.2303125 -6.43945312 4.640625 C-3.42763747 0.45893054 -3.42763747 0.45893054 0 0 Z " fill="#F70C5F" transform="translate(24.80078125,44.625)"/>
<path d="M0 0 C1.67235225 2.02880389 3.18697635 4.03759981 4.6875 6.1875 C5.11611328 6.76564453 5.54472656 7.34378906 5.98632812 7.93945312 C7.98246608 10.78419079 9.04729199 12.3996322 8.76953125 15.92578125 C8.51558594 16.61027344 8.26164062 17.29476563 8 18 C3.55720005 17.53720834 1.74503097 16.85646169 -1.24609375 13.41796875 C-3.23711429 10.65325396 -5.15581478 7.86447471 -7 5 C-2.25 0 -2.25 0 0 0 Z " fill="#0BE7FE" transform="translate(18,14)"/>
<path d="M0 0 C1.32 0 2.64 0 4 0 C4.33 1.65 4.66 3.3 5 5 C5.804375 5.144375 6.60875 5.28875 7.4375 5.4375 C10 6 10 6 11 7 C11.1875 9.9375 11.1875 9.9375 11 13 C9 15 9 15 6.8359375 15.1953125 C4.55729167 15.13020833 2.27864583 15.06510417 0 15 C0 10.05 0 5.1 0 0 Z " fill="#1D1D1D" transform="translate(149,32)"/>
<path d="M0 0 C1.32 0 2.64 0 4 0 C4.33 1.65 4.66 3.3 5 5 C5.804375 4.979375 6.60875 4.95875 7.4375 4.9375 C10 5 10 5 11 6 C11.04384447 7.66608987 11.0396713 9.33380554 11 11 C11 11.99 11 12.98 11 14 C11 14.33 11 14.66 11 15 C7.33333333 15 3.66666667 15 0 15 C0 10.05 0 5.1 0 0 Z " fill="#1E1E1E" transform="translate(186,32)"/>
<path d="M0 0 C0.2475 0.886875 0.495 1.77375 0.75 2.6875 C2.00815587 6.53768438 2.00815587 6.53768438 6 11 C-1.59 11 -9.18 11 -17 11 C-17.33 10.34 -17.66 9.68 -18 9 C-17.071875 8.87625 -17.071875 8.87625 -16.125 8.75 C-13.81562433 8.18741541 -13.81562433 8.18741541 -12.75 5.9375 C-12.5025 5.298125 -12.255 4.65875 -12 4 C-11.34 4 -10.68 4 -10 4 C-9.67 4.99 -9.34 5.98 -9 7 C-8.01 7 -7.02 7 -6 7 C-5.54625 6.030625 -5.0925 5.06125 -4.625 4.0625 C-2.46938776 0 -2.46938776 0 0 0 Z " fill="#F4D6D6" transform="translate(137,39)"/>
<path d="M0 0 C3.63 0 7.26 0 11 0 C11 1.32 11 2.64 11 4 C10.01 4 9.02 4 8 4 C8 7.63 8 11.26 8 15 C6.68 15 5.36 15 4 15 C4 11.37 4 7.74 4 4 C2.68 4 1.36 4 0 4 C0 2.68 0 1.36 0 0 Z " fill="#040404" transform="translate(161,32)"/>
<path d="M0 0 C6.57692308 0.57692308 6.57692308 0.57692308 8 2 C8.1875 4.9375 8.1875 4.9375 8 8 C6 10 6 10 3 10.25 C0 10 0 10 -2 8 C-2.25 5 -2.25 5 -2 2 C-1.34 1.34 -0.68 0.68 0 0 Z " fill="#292929" transform="translate(176,37)"/>
<path d="M0 0 C6.57692308 0.57692308 6.57692308 0.57692308 8 2 C8.25 4.9375 8.25 4.9375 8 8 C4.77626323 10.14915785 3.73296326 10.38286803 0 10 C-2 8 -2 8 -2.25 5 C-2 2 -2 2 0 0 Z " fill="#282828" transform="translate(94,37)"/>
<path d="M0 0 C0 2.97 0 5.94 0 9 C-1.32 9 -2.64 9 -4 9 C-4 6.69 -4 4.38 -4 2 C-4.99 2 -5.98 2 -7 2 C-7 4.31 -7 6.62 -7 9 C-8.32 9 -9.64 9 -11 9 C-11 6.03 -11 3.06 -11 0 C-6.95083621 -1.34972126 -4.08742988 -0.88376862 0 0 Z " fill="#131313" transform="translate(221,38)"/>
<path d="M0 0 C0.721875 0.00257812 1.44375 0.00515625 2.1875 0.0078125 C2.909375 0.00523438 3.63125 0.00265625 4.375 0 C6.1875 0.1328125 6.1875 0.1328125 7.1875 1.1328125 C7.25929964 2.65209288 7.27142007 4.17448732 7.25 5.6953125 C7.24097656 6.52160156 7.23195313 7.34789062 7.22265625 8.19921875 C7.21105469 8.83730469 7.19945313 9.47539063 7.1875 10.1328125 C6.1975 10.1328125 5.2075 10.1328125 4.1875 10.1328125 C4.1875 7.8228125 4.1875 5.5128125 4.1875 3.1328125 C3.1975 3.1328125 2.2075 3.1328125 1.1875 3.1328125 C1.1875 5.4428125 1.1875 7.7528125 1.1875 10.1328125 C-0.1325 10.1328125 -1.4525 10.1328125 -2.8125 10.1328125 C-2.83939216 8.65374358 -2.85884621 7.17453767 -2.875 5.6953125 C-2.88660156 4.87160156 -2.89820312 4.04789063 -2.91015625 3.19921875 C-2.78580037 0.56784823 -2.63135505 0.19281481 0 0 Z " fill="#0E0E0E" transform="translate(106.8125,36.8671875)"/>
<path d="M0 0 C2.5 0.25 2.5 0.25 4.5 2.25 C4.5 3.57 4.5 4.89 4.5 6.25 C2.85 6.58 1.2 6.91 -0.5 7.25 C1.15 7.58 2.8 7.91 4.5 8.25 C4.17 8.91 3.84 9.57 3.5 10.25 C-1.91139241 10.61075949 -1.91139241 10.61075949 -4.4375 9.0625 C-5.5 7.25 -5.5 7.25 -5.3125 4.6875 C-4.22827241 1.43481722 -3.47807945 0.34780795 0 0 Z " fill="#202020" transform="translate(142.5,36.75)"/>
<path d="M0 0 C2.5625 0.3125 2.5625 0.3125 4.375 1.625 C5.5625 3.3125 5.5625 3.3125 5.5625 6.3125 C4.5725 6.6425 3.5825 6.9725 2.5625 7.3125 C3.2225 7.3125 3.8825 7.3125 4.5625 7.3125 C4.2325 8.3025 3.9025 9.2925 3.5625 10.3125 C0.6875 10.4375 0.6875 10.4375 -2.4375 10.3125 C-4.4375 8.3125 -4.4375 8.3125 -4.6875 5.3125 C-4.37675292 1.58353509 -3.7821044 0.48488518 0 0 Z " fill="#212121" transform="translate(203.4375,36.6875)"/>
<path d="M0 0 C0.33 0 0.66 0 1 0 C1 3.3 1 6.6 1 10 C2.32 10.66 3.64 11.32 5 12 C0.05 12 -4.9 12 -10 12 C-10 11.01 -10 10.02 -10 9 C-8.68 9 -7.36 9 -6 9 C-6 6.69 -6 4.38 -6 2 C-5.01 2 -4.02 2 -3 2 C-3 4.31 -3 6.62 -3 9 C-2.01 9 -1.02 9 0 9 C0 6.03 0 3.06 0 0 Z " fill="#E7B1B1" transform="translate(114,38)"/>
<path d="M0 0 C1.32 0 2.64 0 4 0 C4 4.62 4 9.24 4 14 C2.35 14.66 0.7 15.32 -1 16 C-0.67 10.72 -0.34 5.44 0 0 Z " fill="#040404" transform="translate(78,32)"/>
<path d="M0 0 C0.93779297 0.495 0.93779297 0.495 1.89453125 1 C6.20633387 2.38845468 10.19382338 2.1354537 14.6875 2 C16.39948956 1.94908581 18.11177092 1.90698346 19.82421875 1.875 C20.95476685 1.84019531 20.95476685 1.84019531 22.1081543 1.8046875 C24 2 24 2 26 4 C17.09 4 8.18 4 -1 4 C-1.33 3.34 -1.66 2.68 -2 2 C-1.34 2 -0.68 2 0 2 C0 1.34 0 0.68 0 0 Z " fill="#FD7777" transform="translate(153,46)"/>
<path d="M0 0 C3 1 3 1 4.5625 3.9375 C5.036875 4.948125 5.51125 5.95875 6 7 C6.66 7.66 7.32 8.32 8 9 C4.63458162 10.08174162 3.70152678 9.92538169 0 9 C0 6.03 0 3.06 0 0 Z " fill="#F7F3F3" transform="translate(115,39)"/>
<path d="M0 0 C-3.2134038 0.94734782 -6.15472447 1.16452421 -9.5 1.1875 C-10.4384375 1.20167969 -11.376875 1.21585938 -12.34375 1.23046875 C-15.05994337 0.99479903 -16.67915046 0.38484654 -19 -1 C-19 -1.33 -19 -1.66 -19 -2 C-11.7539453 -3.27871554 -6.98129768 -2.05332285 0 0 Z " fill="#FDA3A3" transform="translate(219,49)"/>
<path d="M0 0 C2.0625 0.4375 2.0625 0.4375 4 1 C3.01 1.495 3.01 1.495 2 2 C2.99 3.485 2.99 3.485 4 5 C3.625 7.1875 3.625 7.1875 3 9 C1.68 9.33 0.36 9.66 -1 10 C-1.33 9.34 -1.66 8.68 -2 8 C-1.34 8 -0.68 8 0 8 C0 7.01 0 6.02 0 5 C-0.66 5 -1.32 5 -2 5 C-1.125 1.125 -1.125 1.125 0 0 Z " fill="#121212" transform="translate(86,37)"/>
<path d="M0 0 C0.66 0 1.32 0 2 0 C2.20625 0.804375 2.4125 1.60875 2.625 2.4375 C3.07875 3.283125 3.5325 4.12875 4 5 C7.05272465 5.89830839 7.05272465 5.89830839 10 6 C6.68929162 7.00109515 3.69915231 7.10356134 0.25 7.0625 C-0.73484375 7.05347656 -1.7196875 7.04445313 -2.734375 7.03515625 C-3.48203125 7.02355469 -4.2296875 7.01195312 -5 7 C-5.33 6.34 -5.66 5.68 -6 5 C-5.38125 4.9175 -4.7625 4.835 -4.125 4.75 C-1.81562433 4.18741541 -1.81562433 4.18741541 -0.75 1.9375 C-0.5025 1.298125 -0.255 0.65875 0 0 Z " fill="#F49999" transform="translate(125,43)"/>
<path d="M0 0 C0.99 0 1.98 0 3 0 C3 2.31 3 4.62 3 7 C5.31 7.33 7.62 7.66 10 8 C9.67 8.66 9.34 9.32 9 10 C7.35333797 9.8864371 5.70763918 9.75882619 4.0625 9.625 C3.14597656 9.55539063 2.22945312 9.48578125 1.28515625 9.4140625 C0.15400391 9.20910156 0.15400391 9.20910156 -1 9 C-1.33 8.34 -1.66 7.68 -2 7 C-1.34 7 -0.68 7 0 7 C0 4.69 0 2.38 0 0 Z " fill="#F0D1D1" transform="translate(214,40)"/>
<path d="M0 0 C1.98 0.495 1.98 0.495 4 1 C4 3.97 4 6.94 4 10 C3.01 10 2.02 10 1 10 C1 7.69 1 5.38 1 3 C0.34 2.67 -0.32 2.34 -1 2 C-0.67 1.34 -0.34 0.68 0 0 Z " fill="#030303" transform="translate(110,37)"/>
<path d="M0 0 C3.465 1.485 3.465 1.485 7 3 C3.32589215 4.17571451 -0.16929183 4.07366746 -4 4 C-4.33 3.34 -4.66 2.68 -5 2 C-3.35 2 -1.7 2 0 2 C0 1.34 0 0.68 0 0 Z " fill="#FF8C8C" transform="translate(184,46)"/>
</svg>
