<?xml version="1.0" encoding="UTF-8"?>
<svg version="1.1" xmlns="http://www.w3.org/2000/svg" width="178" height="55">
<path d="M0 0 C58.74 0 117.48 0 178 0 C178 18.15 178 36.3 178 55 C119.26 55 60.52 55 0 55 C0 36.85 0 18.7 0 0 Z " fill="#FDFDFD" transform="translate(0,0)"/>
<path d="M0 0 C1.65625 2.01171875 1.65625 2.01171875 3.5 4.6875 C4.1084375 5.55761719 4.716875 6.42773438 5.34375 7.32421875 C9.10938678 13.40785364 10.11174012 18.92443365 9 26 C5.06551724 34.96724138 5.06551724 34.96724138 1 37 C0.34227572 40.02934491 0.34227572 40.02934491 0 43 C-0.33 43 -0.66 43 -1 43 C-1.20625 42.154375 -1.4125 41.30875 -1.625 40.4375 C-2.88123797 37.29690508 -3.79537552 35.91433266 -6 33.5 C-10.54835459 28.40806157 -11.5186587 23.3828509 -11.38671875 16.6640625 C-10.60460055 11.27613711 -6.52998665 0 0 0 Z " fill="#60AD58" transform="translate(18,3)"/>
<path d="M0 0 C2.06183633 -0.08150744 4.12461349 -0.1394194 6.1875 -0.1875 C7.33605469 -0.22230469 8.48460937 -0.25710937 9.66796875 -0.29296875 C14.27072382 0.11172835 16.78317409 1.78317409 20 5 C20.57039258 8.05610339 20.5337277 10.94031349 20 14 C17.81840855 16.75569447 16.12822506 18.43588747 13 20 C10.7927077 20.07092842 8.58332548 20.08415025 6.375 20.0625 C5.18648437 20.05347656 3.99796875 20.04445313 2.7734375 20.03515625 C1.85820312 20.02355469 0.94296875 20.01195313 0 20 C0.33 19.34 0.66 18.68 1 18 C1.09809858 15.32248582 1.1390397 12.67690283 1.125 10 C1.13080078 8.89398437 1.13080078 8.89398437 1.13671875 7.765625 C1.21417412 3.75278359 1.21417412 3.75278359 0 0 Z " fill="#9B8160" transform="translate(127,19)"/>
<path d="M0 0 C1.93719378 -0.05406122 3.87481921 -0.09282025 5.8125 -0.125 C6.89144531 -0.14820312 7.97039062 -0.17140625 9.08203125 -0.1953125 C12 0 12 0 15 2 C15.28056176 4.80561762 15.26710868 6.46578263 14 9 C14.515625 9.391875 15.03125 9.78375 15.5625 10.1875 C17 12 17 12 16.9375 14.5 C15.7799701 17.5867464 14.83421818 18.35264036 12 20 C8.984375 20.29296875 8.984375 20.29296875 5.75 20.1875 C4.13351563 20.14689453 4.13351563 20.14689453 2.484375 20.10546875 C1.25460938 20.05326172 1.25460938 20.05326172 0 20 C0 19.34 0 18.68 0 18 C0.66 18 1.32 18 2 18 C2 12.72 2 7.44 2 2 C1.34 2 0.68 2 0 2 C0 1.34 0 0.68 0 0 Z " fill="#A68E72" transform="translate(150,19)"/>
<path d="M0 0 C3.81884766 0.78222656 3.81884766 0.78222656 5.44921875 2.7421875 C5.85785156 3.44601563 6.26648438 4.14984375 6.6875 4.875 C7.10386719 5.57367188 7.52023438 6.27234375 7.94921875 6.9921875 C10.63962572 12.13296513 10.79560772 17.33497835 10 23 C8.44117294 26.67508278 6.58150557 29.94741677 4 33 C2.515 33.495 2.515 33.495 1 34 C0.06061705 26.43621983 -0.12265008 18.99092495 -0.0625 11.375 C-0.05798828 10.27542969 -0.05347656 9.17585937 -0.04882812 8.04296875 C-0.03717139 5.36191997 -0.02081017 2.68099068 0 0 Z " fill="#50A150" transform="translate(17,6)"/>
<path d="M0 0 C1.16015625 0.01353516 1.16015625 0.01353516 2.34375 0.02734375 C3.0553125 0.03894531 3.766875 0.05054687 4.5 0.0625 C6.35463477 0.0625 8.21006788 0.02786254 10.0625 -0.0625 C12.5 0.0625 12.5 0.0625 14.5 2.0625 C14.6953125 4.4453125 14.6953125 4.4453125 14.625 7.1875 C14.60695313 8.09757812 14.58890625 9.00765625 14.5703125 9.9453125 C14.54710938 10.64398438 14.52390625 11.34265625 14.5 12.0625 C15.49 12.0625 16.48 12.0625 17.5 12.0625 C17.5 12.7225 17.5 13.3825 17.5 14.0625 C11.34765625 14.16015625 11.34765625 14.16015625 9.5 14.0625 C9.17 13.7325 8.84 13.4025 8.5 13.0625 C6.16702567 13.02157063 3.83294775 13.02008277 1.5 13.0625 C2.16 12.7325 2.82 12.4025 3.5 12.0625 C3.17 9.0925 2.84 6.1225 2.5 3.0625 C1.18 3.0625 -0.14 3.0625 -1.5 3.0625 C-1.83 6.0325 -2.16 9.0025 -2.5 12.0625 C-1.84 12.3925 -1.18 12.7225 -0.5 13.0625 C-2.81 13.0625 -5.12 13.0625 -7.5 13.0625 C-6.84 12.7325 -6.18 12.4025 -5.5 12.0625 C-5.5 8.7625 -5.5 5.4625 -5.5 2.0625 C-6.16 1.7325 -6.82 1.4025 -7.5 1.0625 C-4.66082777 0.11610926 -2.93586246 -0.04403794 0 0 Z " fill="#F6F5F4" transform="translate(40.5,25.9375)"/>
<path d="M0 0 C0.90105469 0.11085938 1.80210938 0.22171875 2.73046875 0.3359375 C3.76107422 0.47902344 3.76107422 0.47902344 4.8125 0.625 C3.8225 1.12 3.8225 1.12 2.8125 1.625 C2.47096063 3.29000443 2.13800502 4.95678677 1.8125 6.625 C1.1525 7.285 0.4925 7.945 -0.1875 8.625 C-1.5075 8.625 -2.8275 8.625 -4.1875 8.625 C-4.1875 9.285 -4.1875 9.945 -4.1875 10.625 C-3.259375 10.58375 -2.33125 10.5425 -1.375 10.5 C1.8125 10.625 1.8125 10.625 4.8125 12.625 C4.49092796 15.59954134 4.19110258 17.21835278 2.125 19.4375 C-0.88089158 20.98106595 -2.85050655 21.05099916 -6.1875 20.625 C-8.0625 19.125 -8.0625 19.125 -9.1875 17.625 C-8.878125 16.8825 -8.56875 16.14 -8.25 15.375 C-6.94464148 12.06925905 -6.94464148 12.06925905 -6.1875 8.625 C-6.8475 7.965 -7.5075 7.305 -8.1875 6.625 C-8.5 4.125 -8.5 4.125 -8.1875 1.625 C-4.73535147 -0.67643236 -3.95270676 -0.51333854 0 0 Z " fill="#513B30" transform="translate(103.1875,26.375)"/>
<path d="M0 0 C7 0 7 0 9.4375 2.125 C11.25258108 5.46474919 11.47835632 7.25287549 11 11 C9.6 14.7 9.6 14.7 7 16 C4.69 16 2.38 16 0 16 C0 10.72 0 5.44 0 0 Z " fill="#FCFCFB" transform="translate(133,21)"/>
<path d="M0 0 C1.9375 1.125 1.9375 1.125 3 3 C3.53520313 6.59350675 3.44814771 8.31881548 1.4375 11.375 C-1.92058549 13.61372366 -4.04745604 13.57491549 -8 13 C-10.38460953 10.92308202 -10.8959746 9.59443084 -11.4375 6.5 C-11 4 -11 4 -9.4375 1.6875 C-6.10654682 -0.61854451 -3.9675271 -0.504958 0 0 Z " fill="#624E44" transform="translate(121,26)"/>
<path d="M0 0 C1.9375 1.125 1.9375 1.125 3 3 C3.53520313 6.59350675 3.44814771 8.31881548 1.4375 11.375 C-1.86769698 13.57846465 -4.10798594 13.43244601 -8 13 C-10 11 -10 11 -10.3125 7.0625 C-10.23081662 4.56208106 -10.12109418 3.22794199 -8.9375 1 C-5.86784865 -0.58433618 -3.38318857 -0.36248449 0 0 Z " fill="#553F35" transform="translate(70,26)"/>
<path d="M0 0 C0.886875 -0.01417969 1.77375 -0.02835938 2.6875 -0.04296875 C5 0.1875 5 0.1875 7 2.1875 C7.1953125 4.5703125 7.1953125 4.5703125 7.125 7.3125 C7.10695313 8.22257812 7.08890625 9.13265625 7.0703125 10.0703125 C7.04710938 10.76898438 7.02390625 11.46765625 7 12.1875 C7.66 12.5175 8.32 12.8475 9 13.1875 C6.69 13.1875 4.38 13.1875 2 13.1875 C2.66 12.8575 3.32 12.5275 4 12.1875 C3.67 9.2175 3.34 6.2475 3 3.1875 C1.68 3.1875 0.36 3.1875 -1 3.1875 C-1.33 6.1575 -1.66 9.1275 -2 12.1875 C-1.34 12.5175 -0.68 12.8475 0 13.1875 C-2.31 13.1875 -4.62 13.1875 -7 13.1875 C-6.34 12.8575 -5.68 12.5275 -5 12.1875 C-5 8.8875 -5 5.5875 -5 2.1875 C-5.66 1.8575 -6.32 1.5275 -7 1.1875 C-4.52224905 -0.05137548 -2.76346293 0.02008331 0 0 Z " fill="#59443A" transform="translate(83,25.8125)"/>
<path d="M0 0 C1.17755859 -0.02126953 1.17755859 -0.02126953 2.37890625 -0.04296875 C4.4375 0.1875 4.4375 0.1875 6.4375 2.1875 C6.6328125 4.5703125 6.6328125 4.5703125 6.5625 7.3125 C6.54445313 8.22257812 6.52640625 9.13265625 6.5078125 10.0703125 C6.48460937 10.76898438 6.46140625 11.46765625 6.4375 12.1875 C7.0975 12.5175 7.7575 12.8475 8.4375 13.1875 C6.1275 13.1875 3.8175 13.1875 1.4375 13.1875 C2.0975 12.8575 2.7575 12.5275 3.4375 12.1875 C3.1075 9.2175 2.7775 6.2475 2.4375 3.1875 C1.1175 3.1875 -0.2025 3.1875 -1.5625 3.1875 C-1.8925 6.1575 -2.2225 9.1275 -2.5625 12.1875 C-1.9025 12.5175 -1.2425 12.8475 -0.5625 13.1875 C-2.8725 13.1875 -5.1825 13.1875 -7.5625 13.1875 C-6.9025 12.8575 -6.2425 12.5275 -5.5625 12.1875 C-5.5625 8.8875 -5.5625 5.5875 -5.5625 2.1875 C-6.2225 1.8575 -6.8825 1.5275 -7.5625 1.1875 C-4.76092552 0.25364184 -2.90802197 0.02395405 0 0 Z " fill="#614D43" transform="translate(40.5625,25.8125)"/>
<path d="M0 0 C3.96 0 7.92 0 12 0 C12 2.83967231 11.59732819 5.23735711 11 8 C8.69 8.33 6.38 8.66 4 9 C3.67 11.97 3.34 14.94 3 18 C2.67 18 2.34 18 2 18 C2 12.72 2 7.44 2 2 C1.34 2 0.68 2 0 2 C0 1.34 0 0.68 0 0 Z " fill="#AA9378" transform="translate(150,19)"/>
<path d="M0 0 C2.93453261 0.36681658 3.86437246 0.86437246 6 3 C6.125 6.625 6.125 6.625 6 10 C4.35 10.33 2.7 10.66 1 11 C-1.01544839 8.73262056 -1.94914998 7.42714016 -2.3125 4.375 C-2 2 -2 2 0 0 Z " fill="#F0EEED" transform="translate(64,27)"/>
<path d="M0 0 C2.93453261 0.36681658 3.86437246 0.86437246 6 3 C6.25 6 6.25 6 6 9 C5.34 9.66 4.68 10.32 4 11 C2 10.8125 2 10.8125 0 10 C-2.14915785 6.77626323 -2.38286803 5.73296326 -2 2 C-1.34 1.34 -0.68 0.68 0 0 Z " fill="#F3F2F1" transform="translate(115,27)"/>
<path d="M0 0 C1.67542976 0.28604898 3.34385343 0.61781233 5 1 C5 3.97 5 6.94 5 10 C6.65 10.33 8.3 10.66 10 11 C10 11.33 10 11.66 10 12 C7.36 12 4.72 12 2 12 C2 11.34 2 10.68 2 10 C1.01 10 0.02 10 -1 10 C-1.02689216 8.52093108 -1.04634621 7.04172517 -1.0625 5.5625 C-1.07410156 4.73878906 -1.08570313 3.91507813 -1.09765625 3.06640625 C-1 1 -1 1 0 0 Z " fill="#F4F3F2" transform="translate(39,28)"/>
<path d="M0 0 C0.91007812 0.10183594 1.82015625 0.20367188 2.7578125 0.30859375 C3.45648438 0.39238281 4.15515625 0.47617187 4.875 0.5625 C3.885 1.0575 3.885 1.0575 2.875 1.5625 C2.730625 2.201875 2.58625 2.84125 2.4375 3.5 C1.875 5.5625 1.875 5.5625 -1.125 7.5625 C-4.42629606 7.25300349 -5.9836563 6.02504526 -8.125 3.5625 C-7.795 2.5725 -7.465 1.5825 -7.125 0.5625 C-4.50184968 -0.74907516 -2.89466564 -0.33399988 0 0 Z " fill="#665249" transform="translate(103.125,26.4375)"/>
<path d="M0 0 C1.67542976 0.28604898 3.34385343 0.61781233 5 1 C5 3.97 5 6.94 5 10 C1 11 1 11 -1 10 C-1.02689216 8.52093108 -1.04634621 7.04172517 -1.0625 5.5625 C-1.07410156 4.73878906 -1.08570312 3.91507813 -1.09765625 3.06640625 C-1 1 -1 1 0 0 Z " fill="#F3F1F1" transform="translate(82,28)"/>
<path d="M0 0 C2.375 -0.125 2.375 -0.125 5 0 C7 2 7 2 7.1875 4.5625 C7 7 7 7 6 8 C4.00041636 8.04080783 1.99954746 8.04254356 0 8 C0 5.36 0 2.72 0 0 Z " fill="#FCFBFA" transform="translate(156,29)"/>
<path d="M0 0 C0.33 0 0.66 0 1 0 C1.33 4.95 1.66 9.9 2 15 C2.33 10.05 2.66 5.1 3 0 C3.33 0 3.66 0 4 0 C4.02578125 1.13179687 4.0515625 2.26359375 4.078125 3.4296875 C4.13439626 4.91149743 4.19174382 6.39326677 4.25 7.875 C4.26417969 8.62136719 4.27835938 9.36773437 4.29296875 10.13671875 C4.35986341 12.57138381 4.35986341 12.57138381 5 16 C6.32 16.66 7.64 17.32 9 18 C5.37 18 1.74 18 -2 18 C-1.67 17.34 -1.34 16.68 -1 16 C-0.7677354 13.28737884 -0.58063765 10.59226874 -0.4375 7.875 C-0.39431641 7.12089844 -0.35113281 6.36679687 -0.30664062 5.58984375 C-0.2005168 3.72678112 -0.09974999 1.86341476 0 0 Z " fill="#AD987F" transform="translate(129,21)"/>
<path d="M0 0 C2.5625 0.1875 2.5625 0.1875 4.5625 2.1875 C4.7578125 4.5703125 4.7578125 4.5703125 4.6875 7.3125 C4.66945313 8.22257812 4.65140625 9.13265625 4.6328125 10.0703125 C4.60960937 10.76898438 4.58640625 11.46765625 4.5625 12.1875 C5.2225 12.5175 5.8825 12.8475 6.5625 13.1875 C4.5825 13.1875 2.6025 13.1875 0.5625 13.1875 C0.5625 9.8875 0.5625 6.5875 0.5625 3.1875 C-0.7575 2.5275 -2.0775 1.8675 -3.4375 1.1875 C-2.4375 0.1875 -2.4375 0.1875 0 0 Z " fill="#6D5A52" transform="translate(50.4375,25.8125)"/>
<path d="M0 0 C2.475 0.495 2.475 0.495 5 1 C5 4.3 5 7.6 5 11 C5.66 11.33 6.32 11.66 7 12 C4.69 12 2.38 12 0 12 C0.66 11.67 1.32 11.34 2 11 C2 7.7 2 4.4 2 1 C1.34 0.67 0.68 0.34 0 0 Z " fill="#5A463C" transform="translate(33,27)"/>
<path d="M0 0 C2.475 0.495 2.475 0.495 5 1 C5 4.3 5 7.6 5 11 C5.66 11.33 6.32 11.66 7 12 C4.69 12 2.38 12 0 12 C0.66 11.67 1.32 11.34 2 11 C2 7.7 2 4.4 2 1 C1.34 0.67 0.68 0.34 0 0 Z " fill="#513C31" transform="translate(76,27)"/>
<path d="M0 0 C0.66 0 1.32 0 2 0 C1.68466796 2.91682137 1.45209742 4.54790258 -0.65625 6.65625 C-3.69017528 8.39570049 -5.77733109 8.3007392 -9.25 8.1875 C-10.86648437 8.14689453 -10.86648437 8.14689453 -12.515625 8.10546875 C-13.33546875 8.07066406 -14.1553125 8.03585938 -15 8 C-15 7.34 -15 6.68 -15 6 C-14.16855469 5.98582031 -13.33710938 5.97164062 -12.48046875 5.95703125 C-11.39378906 5.90933594 -10.30710938 5.86164062 -9.1875 5.8125 C-8.10855469 5.77769531 -7.02960938 5.74289063 -5.91796875 5.70703125 C-2.78223377 5.29007334 -2.78223377 5.29007334 -1.23828125 2.44921875 C-0.82964844 1.64097656 -0.42101562 0.83273438 0 0 Z " fill="#A2896B" transform="translate(165,31)"/>
<path d="M0 0 C1.134375 0.020625 2.26875 0.04125 3.4375 0.0625 C3.1075 1.7125 2.7775 3.3625 2.4375 5.0625 C0.4575 5.0625 -1.5225 5.0625 -3.5625 5.0625 C-4.125 3.125 -4.125 3.125 -4.5625 1.0625 C-3.5625 0.0625 -3.5625 0.0625 0 0 Z " fill="#F8F7F7" transform="translate(101.5625,39.9375)"/>
<path d="M0 0 C2.31 0.33 4.62 0.66 7 1 C7.33 2.65 7.66 4.3 8 6 C6.35 7.32 4.7 8.64 3 10 C2.01 9.34 1.02 8.68 0 8 C1.32 7.67 2.64 7.34 4 7 C4.33 5.68 4.66 4.36 5 3 C3.02 3 1.04 3 -1 3 C-0.67 2.01 -0.34 1.02 0 0 Z " fill="#6E5B53" transform="translate(100,37)"/>
<path d="M0 0 C3.875 1.875 3.875 1.875 5 3 C5.26293056 7.03160191 5.29404844 8.55892734 3 12 C2.34 11.67 1.68 11.34 1 11 C1.04125 9.906875 1.0825 8.81375 1.125 7.6875 C1.32074666 3.91107771 1.32074666 3.91107771 -1 1 C-0.67 0.67 -0.34 0.34 0 0 Z " fill="#5B463D" transform="translate(68,26)"/>
<path d="M0 0 C1.65 0 3.3 0 5 0 C5.38218767 1.65614657 5.71395102 3.32457024 6 5 C5 6 5 6 2.4375 6.0625 C1.2309375 6.0315625 1.2309375 6.0315625 0 6 C0 4.02 0 2.04 0 0 Z " fill="#FBFAF8" transform="translate(156,21)"/>
<path d="M0 0 C1.98 0 3.96 0 6 0 C4.68 0.33 3.36 0.66 2 1 C2 3.97 2 6.94 2 10 C0.68 9.67 -0.64 9.34 -2 9 C-1.34 6.03 -0.68 3.06 0 0 Z " fill="#9B805F" transform="translate(154,28)"/>
<path d="M0 0 C2.0625 0.4375 2.0625 0.4375 4 1 C4 2.65 4 4.3 4 6 C2.0625 6.5625 2.0625 6.5625 0 7 C-1 6 -1 6 -1.125 3.5 C-1 1 -1 1 0 0 Z " fill="#F1EFEE" transform="translate(99,27)"/>
<path d="M0 0 C0.28875 0.598125 0.5775 1.19625 0.875 1.8125 C2.58141905 5.13053703 3.85730492 6.90486994 7 9 C4.125 9.125 4.125 9.125 1 9 C-1 7 -1 7 -1.1875 3.9375 C-1 1 -1 1 0 0 Z " fill="#553F35" transform="translate(112,30)"/>
<path d="M0 0 C1 2 1 2 1 5 C2.94009522 6.70532323 2.94009522 6.70532323 5 8 C0.44615385 8.36923077 0.44615385 8.36923077 -1.8125 6.5 C-2.204375 6.005 -2.59625 5.51 -3 5 C-1.125 1.125 -1.125 1.125 0 0 Z " fill="#5F4B41" transform="translate(97,39)"/>
<path d="M0 0 C0.66 0 1.32 0 2 0 C2 2.64 2 5.28 2 8 C2.66 8.33 3.32 8.66 4 9 C2.02 9 0.04 9 -2 9 C-1.34 6.03 -0.68 3.06 0 0 Z " fill="#493228" transform="translate(53,30)"/>
<path d="M0 0 C2.475 0.495 2.475 0.495 5 1 C5 2.65 5 4.3 5 6 C4.01 6 3.02 6 2 6 C1.34 4.02 0.68 2.04 0 0 Z " fill="#977B59" transform="translate(160,20)"/>
</svg>
