<?xml version="1.0" encoding="UTF-8"?>
<svg version="1.1" xmlns="http://www.w3.org/2000/svg" width="155" height="74">
<path d="M0 0 C51.15 0 102.3 0 155 0 C155 24.42 155 48.84 155 74 C103.85 74 52.7 74 0 74 C0 49.58 0 25.16 0 0 Z " fill="#FEFEFE" transform="translate(0,0)"/>
<path d="M0 0 C2.97 0.99 5.94 1.98 9 3 C9 10.59 9 18.18 9 26 C-0.95833333 30.97916667 -0.95833333 30.97916667 -5.125 31.0625 C-9.18502426 29.56205625 -13.0809513 27.8407653 -17 26 C-17 22.7 -17 19.4 -17 16 C-15.11157486 15.12957757 -13.21388098 14.27924526 -11.3125 13.4375 C-10.25675781 12.96183594 -9.20101562 12.48617188 -8.11328125 11.99609375 C-5 11 -5 11 0 12 C0 8.04 0 4.08 0 0 Z " fill="#3B3B3B" transform="translate(95,19)"/>
<path d="M0 0 C0.88300781 0.36222656 1.76601562 0.72445312 2.67578125 1.09765625 C3.67158203 1.51337891 3.67158203 1.51337891 4.6875 1.9375 C4.6875 5.2375 4.6875 8.5375 4.6875 11.9375 C-4.50604839 16.9375 -4.50604839 16.9375 -10.3125 16.9375 C-18.96486052 14.28513948 -18.96486052 14.28513948 -21.3125 11.9375 C-21.38455511 10.25141034 -21.39636068 8.56249341 -21.375 6.875 C-21.36597656 5.95589844 -21.35695312 5.03679688 -21.34765625 4.08984375 C-21.33605469 3.37957031 -21.32445312 2.66929688 -21.3125 1.9375 C-19.59171959 1.0665621 -17.86043677 0.21635442 -16.125 -0.625 C-15.16207031 -1.10066406 -14.19914062 -1.57632813 -13.20703125 -2.06640625 C-8.27178632 -3.76476989 -4.65144227 -1.92259614 0 0 Z " fill="#B7D2B5" transform="translate(83.3125,51.0625)"/>
<path d="M0 0 C0.88300781 0.36222656 1.76601562 0.72445312 2.67578125 1.09765625 C3.67158203 1.51337891 3.67158203 1.51337891 4.6875 1.9375 C4.6875 5.2375 4.6875 8.5375 4.6875 11.9375 C-6.4497635 17.81231082 -6.4497635 17.81231082 -12.8125 15.875 C-15.75801399 14.73115873 -18.47795476 13.35477262 -21.3125 11.9375 C-21.3125 8.6375 -21.3125 5.3375 -21.3125 1.9375 C-19.59171959 1.0665621 -17.86043677 0.21635442 -16.125 -0.625 C-15.16207031 -1.10066406 -14.19914062 -1.57632812 -13.20703125 -2.06640625 C-8.27178632 -3.76476989 -4.65144227 -1.92259614 0 0 Z " fill="#72AA64" transform="translate(68.3125,33.0625)"/>
<path d="M0 0 C0 4.29 0 8.58 0 13 C-2.97 12.01 -5.94 11.02 -9 10 C-9 7.69 -9 5.38 -9 3 C-11.31 3 -13.62 3 -16 3 C-16.33 5.31 -16.66 7.62 -17 10 C-21.455 11.485 -21.455 11.485 -26 13 C-26 8.71 -26 4.42 -26 0 C-15.45868938 -5.3570595 -10.76781564 -5.05761038 0 0 Z " fill="#3D3D3D" transform="translate(42,35)"/>
<path d="M0 0 C1.18529297 0.54333984 1.18529297 0.54333984 2.39453125 1.09765625 C2.98621094 1.37480469 3.57789063 1.65195312 4.1875 1.9375 C3.8359375 3.859375 3.8359375 3.859375 3.1875 5.9375 C0.29638212 7.45914099 -1.53073412 7.9375 -4.8125 7.9375 C-4.8125 6.9475 -4.8125 5.9575 -4.8125 4.9375 C-7.4525 4.9375 -10.0925 4.9375 -12.8125 4.9375 C-12.8125 6.2575 -12.8125 7.5775 -12.8125 8.9375 C-12.11382812 9.13085938 -11.41515625 9.32421875 -10.6953125 9.5234375 C-9.78523438 9.78382812 -8.87515625 10.04421875 -7.9375 10.3125 C-7.03257813 10.56773438 -6.12765625 10.82296875 -5.1953125 11.0859375 C-2.8125 11.9375 -2.8125 11.9375 -0.8125 13.9375 C-5.53605322 16.52783564 -9.72039343 16.06312356 -14.8125 14.9375 C-18.375 13.375 -18.375 13.375 -20.8125 11.9375 C-20.8125 8.3075 -20.8125 4.6775 -20.8125 0.9375 C-19.08959395 0.23445778 -17.35882534 -0.44933491 -15.625 -1.125 C-14.66207031 -1.50785156 -13.69914062 -1.89070313 -12.70703125 -2.28515625 C-7.86135263 -3.58649234 -4.42107211 -2.04557068 0 0 Z " fill="#393939" transform="translate(130.8125,33.0625)"/>
<path d="M0 0 C0.88300781 0.36222656 1.76601562 0.72445312 2.67578125 1.09765625 C3.67158203 1.51337891 3.67158203 1.51337891 4.6875 1.9375 C4.6875 5.2375 4.6875 8.5375 4.6875 11.9375 C-0.36195913 14.68369707 -4.44770592 16.70290824 -10.3125 16.9375 C-10.9725 16.2775 -11.6325 15.6175 -12.3125 14.9375 C-7.32966284 13.79698394 -2.36781868 12.71524134 2.6875 11.9375 C2.3575 8.9675 2.0275 5.9975 1.6875 2.9375 C-5.02434033 -0.00628962 -9.16220601 -0.56367017 -16.25 2 C-16.930625 2.309375 -17.61125 2.61875 -18.3125 2.9375 C-18.6425 5.9075 -18.9725 8.8775 -19.3125 11.9375 C-17.6625 12.2675 -16.0125 12.5975 -14.3125 12.9375 C-14.3125 9.9675 -14.3125 6.9975 -14.3125 3.9375 C-13.6525 3.6075 -12.9925 3.2775 -12.3125 2.9375 C-12.3125 6.5675 -12.3125 10.1975 -12.3125 13.9375 C-17.9375 14.1875 -17.9375 14.1875 -21.3125 11.9375 C-21.60546875 9.5546875 -21.60546875 9.5546875 -21.5 6.8125 C-21.47292969 5.90242188 -21.44585937 4.99234375 -21.41796875 4.0546875 C-21.38316406 3.35601562 -21.34835938 2.65734375 -21.3125 1.9375 C-19.59171959 1.0665621 -17.86043677 0.21635442 -16.125 -0.625 C-15.16207031 -1.10066406 -14.19914062 -1.57632813 -13.20703125 -2.06640625 C-8.27178632 -3.76476989 -4.65144227 -1.92259614 0 0 Z " fill="#83B27F" transform="translate(83.3125,51.0625)"/>
<path d="M0 0 C0.66 0.309375 1.32 0.61875 2 0.9375 C2 3.2475 2 5.5575 2 7.9375 C-1.3 6.9475 -4.6 5.9575 -8 4.9375 C-8 4.6075 -8 4.2775 -8 3.9375 C-5.69 3.9375 -3.38 3.9375 -1 3.9375 C-1.98267859 2.73188816 -1.98267859 2.73188816 -3.84765625 2.83984375 C-5.8984375 2.87239583 -7.94921875 2.90494792 -10 2.9375 C-10.33 3.5975 -10.66 4.2575 -11 4.9375 C-11.66 4.2775 -12.32 3.6175 -13 2.9375 C-13.33 5.9075 -13.66 8.8775 -14 11.9375 C-15.65 11.6075 -17.3 11.2775 -19 10.9375 C-19 7.9675 -19 4.9975 -19 1.9375 C-11.84265432 -2.28022156 -7.98609533 -2.82840876 0 0 Z " fill="#F7FAF7" transform="translate(83,52.0625)"/>
<path d="M0 0 C0 3.63 0 7.26 0 11 C-2.33333333 8.66666667 -4.66666667 6.33333333 -7 4 C-7.33 6.64 -7.66 9.28 -8 12 C-8.33 12 -8.66 12 -9 12 C-9 8.7 -9 5.4 -9 2 C-5 0 -5 0 0 0 Z " fill="#73BB56" transform="translate(56,33)"/>
<path d="M0 0 C4.41309542 3.15221101 7.00793014 6.55463907 10 11 C6.06204091 12.22419163 3.83887763 11.48320272 0 10 C0 6.7 0 3.4 0 0 Z " fill="#468E43" transform="translate(48,36)"/>
<path d="M0 0 C0.33 0 0.66 0 1 0 C1 2.97 1 5.94 1 9 C-0.98 9.66 -2.96 10.32 -5 11 C-5 8.03 -5 5.06 -5 2 C-3.68 1.67 -2.36 1.34 -1 1 C-0.67 0.67 -0.34 0.34 0 0 Z " fill="#438C40" transform="translate(71,36)"/>
<path d="M0 0 C0 1.32 0 2.64 0 4 C-2.31 4.33 -4.62 4.66 -7 5 C-7.33 3.35 -7.66 1.7 -8 0 C-5.13822943 -1.43088528 -3.06624227 -0.59991697 0 0 Z " fill="#F3F3F3" transform="translate(95,38)"/>
<path d="M0 0 C0.33 1.32 0.66 2.64 1 4 C-1.375 5.0625 -1.375 5.0625 -4 6 C-4.66 5.67 -5.32 5.34 -6 5 C-6 3.68 -6 2.36 -6 1 C-4 0 -4 0 0 0 Z " fill="#B7CFB5" transform="translate(124,37)"/>
<path d="M0 0 C0.53625 0.474375 1.0725 0.94875 1.625 1.4375 C4.42842836 3.28186076 6.69620258 3.62456847 10 4 C10 4.66 10 5.32 10 6 C7.33333333 6 4.66666667 6 2 6 C1.34 6.99 0.68 7.98 0 9 C0 6.03 0 3.06 0 0 Z " fill="#DEEADD" transform="translate(71,55)"/>
<path d="M0 0 C0.99 0.33 1.98 0.66 3 1 C2.67 2.98 2.34 4.96 2 7 C2.99 7.33 3.98 7.66 5 8 C3.35 8.33 1.7 8.66 0 9 C0 6.03 0 3.06 0 0 Z " fill="#57974F" transform="translate(66,38)"/>
<path d="M0 0 C0.33 0 0.66 0 1 0 C1 2.97 1 5.94 1 9 C-0.32 9.33 -1.64 9.66 -3 10 C-2.67 8.35 -2.34 6.7 -2 5 C-1.67 5 -1.34 5 -1 5 C-0.67 3.35 -0.34 1.7 0 0 Z " fill="#E6EFE5" transform="translate(85,54)"/>
<path d="M0 0 C1.32 1.32 2.64 2.64 4 4 C2.68 5.32 1.36 6.64 0 8 C0 5.36 0 2.72 0 0 Z " fill="#559F49" transform="translate(48,36)"/>
</svg>
