<?xml version="1.0" encoding="UTF-8"?>
<svg version="1.1" xmlns="http://www.w3.org/2000/svg" width="155" height="108">
<path d="M0 0 C51.15 0 102.3 0 155 0 C155 35.64 155 71.28 155 108 C103.85 108 52.7 108 0 108 C0 72.36 0 36.72 0 0 Z " fill="#FDFDFD" transform="translate(0,0)"/>
<path d="M0 0 C2.00293347 3.00440021 2.49271626 4.70993945 3.125 8.1875 C3.29257813 9.08855469 3.46015625 9.98960938 3.6328125 10.91796875 C3.75398438 11.60503906 3.87515625 12.29210938 4 13 C5.13888672 13.25523438 5.13888672 13.25523438 6.30078125 13.515625 C7.29464844 13.75796875 8.28851563 14.0003125 9.3125 14.25 C10.79169922 14.59804688 10.79169922 14.59804688 12.30078125 14.953125 C15.39639653 16.1537399 16.43315196 17.10240431 18 20 C17.93300622 23.75165162 17.55099298 26.15055249 15.5 29.3125 C11.92234013 31.72742041 8.21521905 32.31547725 4 33 C3.82984375 33.68707031 3.6596875 34.37414063 3.484375 35.08203125 C3.24203125 35.98308594 2.9996875 36.88414063 2.75 37.8125 C2.51796875 38.70582031 2.2859375 39.59914062 2.046875 40.51953125 C0.8200272 43.4264281 -0.29296301 44.43276806 -3 46 C-6.61752119 46.52755517 -8.30182885 46.45932313 -11.375 44.4375 C-13.62340519 41.06489221 -13.56783945 38.97487617 -13 35 C-11.29459251 32.25651839 -9.90815069 31.25324984 -6.80078125 30.38671875 C-5.21554537 30.05231311 -3.62251111 29.75250181 -2.0234375 29.4921875 C0.21263083 29.13400046 0.21263083 29.13400046 2 27 C2.50966413 21.11663097 2.50966413 21.11663097 0 16 C-2.08847349 15.31422735 -2.08847349 15.31422735 -4.4375 15 C-7.92810843 14.44794331 -9.85498615 13.90723575 -12 11 C-12.48736555 6.61371001 -12.72769302 4.24314224 -10.5 0.4375 C-6.63119898 -1.78706059 -4.30415159 -1.041327 0 0 Z " fill="#F64755" transform="translate(84,19)"/>
<path d="M0 0 C2.9375 2.0625 2.9375 2.0625 5 5 C5 8.54361243 4.65850044 10.86591591 2.875 13.9375 C-0.18452459 15.6712306 -2.56817525 15.42145216 -6 15 C-8.4375 13.4375 -8.4375 13.4375 -10 11 C-10.56783945 7.02512383 -10.62340519 4.93510779 -8.375 1.5625 C-5.24316508 -0.49791771 -3.68455227 -0.6767545 0 0 Z " fill="#1B1B1B" transform="translate(52,50)"/>
<path d="M0 0 C3.72206393 1.34627844 5.01947413 2.61005343 6.9375 6.0625 C7.01854732 10.03381876 6.4063579 11.54005834 3.75 14.5 C0.9375 16.0625 0.9375 16.0625 -2.1875 16 C-6.61440311 14.55644464 -6.61440311 14.55644464 -8.0625 12.0625 C-8.45552445 8.96743248 -8.69158496 7.01801234 -8.0625 4.0625 C-5.4424551 0.90303409 -4.11187634 0.08391584 0 0 Z " fill="#1C1C1C" transform="translate(64.0625,33.9375)"/>
<path d="M0 0 C1.5675 -0.061875 3.135 -0.12375 4.75 -0.1875 C6.07257813 -0.23970703 6.07257813 -0.23970703 7.421875 -0.29296875 C10.44671583 0.05076316 11.75583602 1.00227459 14 3 C13.814375 4.03125 13.62875 5.0625 13.4375 6.125 C13.02692918 9.76148442 13.221691 12.45437009 14 16 C12.35 16 10.7 16 9 16 C9 14.35 9 12.7 9 11 C7.35 11 5.7 11 4 11 C4 12.65 4 14.3 4 16 C2.68 16 1.36 16 0 16 C0 10.72 0 5.44 0 0 Z " fill="#3C3C3C" transform="translate(76,77)"/>
<path d="M0 0 C10.46024891 -0.36918526 10.46024891 -0.36918526 12.87890625 1.28515625 C14.7320233 4.11971509 13.59049357 6.81133473 13 10 C13.33 10.33 13.66 10.66 14 11 C14.04063832 12.66617115 14.042721 14.33388095 14 16 C12.35 15.67 10.7 15.34 9 15 C8.67 13.68 8.34 12.36 8 11 C6.68 10.67 5.36 10.34 4 10 C4 11.98 4 13.96 4 16 C2.68 16 1.36 16 0 16 C0 10.72 0 5.44 0 0 Z " fill="#252525" transform="translate(8,77)"/>
<path d="M0 0 C2.375 1.5625 2.375 1.5625 4 4 C4.45310904 7.62487235 4.38885542 10.05216491 3 13.4375 C0.28486205 15.55870152 -1.74916293 15.51337798 -5.125 15.30859375 C-7 15 -7 15 -9 14 C-10.63147635 10.7370473 -10.6293407 7.51440821 -10 4 C-7.31163109 -0.13595217 -4.79825109 -0.79970851 0 0 Z " fill="#191919" transform="translate(108,50)"/>
<path d="M0 0 C2 3 2 3 1.8125 6.0625 C1 9 1 9 -2 11 C-4.83079592 11.35384949 -6.36830089 11.3920891 -8.8125 9.875 C-10.57002414 7.09996189 -10.46822746 5.21070255 -10 2 C-6.96457461 -1.61916104 -4.32701626 -1.31691799 0 0 Z " fill="#232323" transform="translate(101,82)"/>
<path d="M0 0 C6.875 0.875 6.875 0.875 8 2 C8.4601125 5.32303475 8.70381212 8.65730818 9 12 C5.37 12 1.74 12 -2 12 C-2.33 10.35 -2.66 8.7 -3 7 C-1.35 6.34 0.3 5.68 2 5 C0.68 4.67 -0.64 4.34 -2 4 C-1.34 2.68 -0.68 1.36 0 0 Z " fill="#3A3A3A" transform="translate(39,81)"/>
<path d="M0 0 C2.9375 0.75 2.9375 0.75 4.9375 2.75 C4.9375 4.07 4.9375 5.39 4.9375 6.75 C3.6175 7.08 2.2975 7.41 0.9375 7.75 C1.9275 7.75 2.9175 7.75 3.9375 7.75 C3.2775 9.07 2.6175 10.39 1.9375 11.75 C-3.41215035 12.10664336 -3.41215035 12.10664336 -6 10.6875 C-7.72915678 7.53433176 -6.9215699 5.12491745 -6.0625 1.75 C-3.0625 -0.25 -3.0625 -0.25 0 0 Z " fill="#393939" transform="translate(30.0625,81.25)"/>
<path d="M0 0 C1.65 0 3.3 0 5 0 C5 2.64 5 5.28 5 8 C5.66 7.67 6.32 7.34 7 7 C7.40729228 4.67843403 7.74438677 2.3431213 8 0 C9.32 0 10.64 0 12 0 C12 3.63 12 7.26 12 11 C10.39125 11.061875 8.7825 11.12375 7.125 11.1875 C5.76761719 11.23970703 5.76761719 11.23970703 4.3828125 11.29296875 C3.20332031 11.14794922 3.20332031 11.14794922 2 11 C-0.67927341 6.98108988 -0.15601248 4.75838077 0 0 Z " fill="#343434" transform="translate(104,82)"/>
<path d="M0 0 C3.5 0.25 3.5 0.25 5.5 2.25 C5.5 3.57 5.5 4.89 5.5 6.25 C3.19 6.25 0.88 6.25 -1.5 6.25 C-1.5 6.91 -1.5 7.57 -1.5 8.25 C1.965 7.755 1.965 7.755 5.5 7.25 C5.17 8.24 4.84 9.23 4.5 10.25 C-2.125 11.5 -2.125 11.5 -5.5 9.25 C-5.8125 5.75 -5.8125 5.75 -5.5 2.25 C-3.5 0.25 -3.5 0.25 0 0 Z " fill="#2B2B2B" transform="translate(132.5,81.75)"/>
<path d="M0 0 C0.33 1.32 0.66 2.64 1 4 C-1.31 3.67 -3.62 3.34 -6 3 C-5.73323796 4.98491642 -5.73323796 4.98491642 -5 7 C-4.01 7.33 -3.02 7.66 -2 8 C-2 7.34 -2 6.68 -2 6 C-1.01 6 -0.02 6 1 6 C0.125 9.875 0.125 9.875 -1 11 C-6.24050633 11.4556962 -6.24050633 11.4556962 -8.875 9.875 C-10.54663625 7.08893958 -10.46376624 5.18011138 -10 2 C-6.92702006 -1.66393762 -4.38919352 -1.09729838 0 0 Z " fill="#252525" transform="translate(59,82)"/>
<path d="M0 0 C0.66 0 1.32 0 2 0 C2 0.99 2 1.98 2 3 C2.99 3 3.98 3 5 3 C5 3.99 5 4.98 5 6 C4.34 6 3.68 6 3 6 C3 7.65 3 9.3 3 11 C3.66 11 4.32 11 5 11 C5 11.99 5 12.98 5 14 C3.33388095 14.042721 1.66617115 14.04063832 0 14 C-1 13 -1 13 -1.09765625 11.15234375 C-1.06510417 9.1015625 -1.03255208 7.05078125 -1 5 C-1.66 5 -2.32 5 -3 5 C-3 4.34 -3 3.68 -3 3 C-2.34 3 -1.68 3 -1 3 C-0.67 2.01 -0.34 1.02 0 0 Z " fill="#242424" transform="translate(64,79)"/>
<path d="M0 0 C0.99 0 1.98 0 3 0 C3 0.99 3 1.98 3 3 C3.66 3 4.32 3 5 3 C5 3.66 5 4.32 5 5 C4.01 5 3.02 5 2 5 C2.34444881 7.47266765 2.34444881 7.47266765 3 10 C3.66 10.33 4.32 10.66 5 11 C5 11.99 5 12.98 5 14 C3.33388095 14.042721 1.66617115 14.04063832 0 14 C-1 13 -1 13 -1.09765625 11.15234375 C-1.06510417 9.1015625 -1.03255208 7.05078125 -1 5 C-1.66 5 -2.32 5 -3 5 C-3 4.34 -3 3.68 -3 3 C-2.34 3 -1.68 3 -1 3 C-0.67 2.01 -0.34 1.02 0 0 Z " fill="#1E1E1E" transform="translate(120,79)"/>
<path d="M0 0 C0.66 0 1.32 0 2 0 C2 1.32 2 2.64 2 4 C1.01 4.33 0.02 4.66 -1 5 C-1.33 7.31 -1.66 9.62 -2 12 C-3.32 12 -4.64 12 -6 12 C-6 8.37 -6 4.74 -6 1 C-4.35 1 -2.7 1 -1 1 C-0.67 0.67 -0.34 0.34 0 0 Z " fill="#202020" transform="translate(146,81)"/>
<path d="M0 0 C0.33 0.66 0.66 1.32 1 2 C1.66 2 2.32 2 3 2 C3 4.31 3 6.62 3 9 C2.34 7.68 1.68 6.36 1 5 C-0.32 5.33 -1.64 5.66 -3 6 C-3 6.66 -3 7.32 -3 8 C-4.32 7.67 -5.64 7.34 -7 7 C-7 5.68 -7 4.36 -7 3 C-4.69 3.33 -2.38 3.66 0 4 C0 2.68 0 1.36 0 0 Z " fill="#CDCDCD" transform="translate(60,82)"/>
<path d="M0 0 C0.99 0 1.98 0 3 0 C3 3.3 3 6.6 3 10 C1.68 9.67 0.36 9.34 -1 9 C-0.67 6.03 -0.34 3.06 0 0 Z " fill="#161616" transform="translate(112,82)"/>
<path d="M0 0 C1.2065625 0.0309375 1.2065625 0.0309375 2.4375 0.0625 C1.4475 0.5575 1.4475 0.5575 0.4375 1.0625 C0.4375 2.0525 0.4375 3.0425 0.4375 4.0625 C1.0975 4.0625 1.7575 4.0625 2.4375 4.0625 C2.4375 4.7225 2.4375 5.3825 2.4375 6.0625 C0.7875 6.0625 -0.8625 6.0625 -2.5625 6.0625 C-2.94468767 4.40635343 -3.27645102 2.73792976 -3.5625 1.0625 C-2.5625 0.0625 -2.5625 0.0625 0 0 Z " fill="#272727" transform="translate(39.5625,86.9375)"/>
<path d="M0 0 C0.33 0 0.66 0 1 0 C1 3.63 1 7.26 1 11 C0.34 10.01 -0.32 9.02 -1 8 C-4.58357241 7.74984127 -4.58357241 7.74984127 -8 8 C-8 7.34 -8 6.68 -8 6 C-5.69 6 -3.38 6 -1 6 C-0.67 4.02 -0.34 2.04 0 0 Z " fill="#DBDBDB" transform="translate(139,82)"/>
<path d="M0 0 C2.97 0.495 2.97 0.495 6 1 C6.33 2.32 6.66 3.64 7 5 C4.69 4.67 2.38 4.34 0 4 C0 2.68 0 1.36 0 0 Z " fill="#393939" transform="translate(53,81)"/>
<path d="M0 0 C1.65 0 3.3 0 5 0 C5.33 1.65 5.66 3.3 6 5 C5.01 5 4.02 5 3 5 C2.67 4.34 2.34 3.68 2 3 C1.01 3 0.02 3 -1 3 C-0.67 2.01 -0.34 1.02 0 0 Z " fill="#1D1D1D" transform="translate(28,82)"/>
<path d="M0 0 C0.99 0.33 1.98 0.66 3 1 C2.67 2.65 2.34 4.3 2 6 C1.01 5.67 0.02 5.34 -1 5 C-0.67 3.35 -0.34 1.7 0 0 Z " fill="#DEDEDE" transform="translate(96,84)"/>
<path d="M0 0 C1.98 0 3.96 0 6 0 C6 0.99 6 1.98 6 3 C4.02 3 2.04 3 0 3 C0 2.01 0 1.02 0 0 Z " fill="#EBEBEB" transform="translate(12,81)"/>
</svg>
