<?xml version="1.0" encoding="UTF-8"?>
<svg version="1.1" xmlns="http://www.w3.org/2000/svg" width="117" height="133">
<path d="M0 0 C38.61 0 77.22 0 117 0 C117 43.89 117 87.78 117 133 C78.39 133 39.78 133 0 133 C0 89.11 0 45.22 0 0 Z " fill="#FDFEFE" transform="translate(0,0)"/>
<path d="M0 0 C6.37255399 2.78656483 12.27493204 5.81618758 17 11 C21.19902808 9.06049511 24.74106738 6.37282256 28.46484375 3.65625 C33.48941885 0.37363083 38.05934767 -0.93990037 44 0 C48.22990488 2.25594927 50.01026361 5.11476739 51.5 9.66015625 C53.06189576 16.9693403 52.13378679 23.93183125 50 31 C50.70253906 31.11085938 51.40507813 31.22171875 52.12890625 31.3359375 C59.62618241 33.07000137 67.41966843 36.94105827 72.06640625 43.21484375 C73.73727562 46.4097697 73.68760462 48.49946737 73 52 C68.69920479 60.45328713 60.53149052 63.70795746 52 67 C52.0314209 67.84594727 52.0314209 67.84594727 52.06347656 68.70898438 C52.14748501 71.30580249 52.19892229 73.90233362 52.25 76.5 C52.28351563 77.386875 52.31703125 78.27375 52.3515625 79.1875 C52.44049056 85.23460796 51.65093386 90.03571419 48 95 C43.48146119 98.01235921 39.29184876 97.80242413 34 97 C28.44219169 94.58560654 23.56684216 90.95792987 19 87 C15.15465381 88.81367802 11.79862645 91.14008594 8.31640625 93.5625 C2.73852398 97.02398512 -2.51393949 98.03478268 -9 97 C-13.22662109 94.00614339 -14.97491898 91.03221591 -16 86 C-16.48318482 79.29709564 -15.9392468 73.42375502 -14 67 C-14.78375 66.95875 -15.5675 66.9175 -16.375 66.875 C-24.32483029 64.95607545 -31.71769868 59.84530194 -36.3125 53.0625 C-37.31881413 50.04355762 -37.49890264 48.18050434 -37 45 C-33.22373415 37.78017894 -25.19212409 34.05711734 -18 31 C-16.68 31 -15.36 31 -14 31 C-14.2165625 30.09121094 -14.2165625 30.09121094 -14.4375 29.1640625 C-16.34854457 20.53781966 -17.74922209 12.57678796 -13.125 4.62890625 C-9.76320484 -0.23869299 -5.71197622 -1.27331338 0 0 Z " fill="#5BC6E3" transform="translate(39,3)"/>
<path d="M0 0 C3.4795349 0.64657234 4.57424968 1.12507608 7.375 3.4921875 C9.17015206 6.32806349 10.41487877 9.04357908 11.625 12.16796875 C12.19089844 13.00972656 12.75679687 13.85148437 13.33984375 14.71875 C14.625 17.16796875 14.625 17.16796875 14.56640625 19.5234375 C13.29315943 23.10015159 11.50253101 26.22697978 9.5625 29.48046875 C9.18544922 30.12564453 8.80839844 30.77082031 8.41992188 31.43554688 C7.49462507 33.01675027 6.56067319 34.59288335 5.625 36.16796875 C-13.21198419 37.63607903 -13.21198419 37.63607903 -17.96484375 34.41015625 C-19.47652458 32.04439579 -20.43465949 29.80766901 -21.375 27.16796875 C-22.19009443 25.92663229 -23.02193216 24.69602229 -23.875 23.48046875 C-25.375 20.16796875 -25.375 20.16796875 -24.6484375 17.390625 C-24.22820313 16.32714844 -23.80796875 15.26367188 -23.375 14.16796875 C-22.96507812 13.03617188 -22.55515625 11.904375 -22.1328125 10.73828125 C-17.2470812 0.42915444 -11.18181861 -1.0963387 0 0 Z " fill="#F9FDFD" transform="translate(62.375,32.83203125)"/>
<path d="M0 0 C13.591647 -0.23844995 13.591647 -0.23844995 17.6875 3.36328125 C18.450625 4.33652344 19.21375 5.30976562 20 6.3125 C20.78375 7.27800781 21.5675 8.24351563 22.375 9.23828125 C24 12 24 12 24.01953125 14.16015625 C22.64878518 16.63380146 21.07773216 17.6306159 18.6875 19.125 C17.90761719 19.62257813 17.12773438 20.12015625 16.32421875 20.6328125 C11.63998654 23.38824321 8.60401276 24.80057325 3 24 C-0.29495814 21.04298628 -0.88747892 19.2827403 -1.2734375 14.8828125 C-1.33128707 9.78048076 -1.14175312 4.98472703 0 0 Z " fill="#F8FCFD" transform="translate(29,72)"/>
<path d="M0 0 C0.89822503 2.03155595 1.76773775 4.07582231 2.625 6.125 C3.35589844 7.83042969 3.35589844 7.83042969 4.1015625 9.5703125 C5.16216301 13.61903966 4.64345084 15.22006308 3 19 C2.71898438 19.84304687 2.43796875 20.68609375 2.1484375 21.5546875 C1.43229167 23.703125 0.71614583 25.8515625 0 28 C-7.53501357 26.34827469 -13.67758081 23.75011359 -19 18 C-20.5625 14.5 -20.5625 14.5 -20 11 C-15.46773217 5.13398577 -7.55123159 0 0 0 Z " fill="#FAFDFE" transform="translate(27,38)"/>
<path d="M0 0 C1.18813473 3.56440418 1.24187953 6.55474782 1.3125 10.3125 C1.34988281 11.60800781 1.38726562 12.90351562 1.42578125 14.23828125 C0.91445245 18.75580084 -0.24121992 20.49030937 -3 24 C-10.97248919 23.87141146 -16.09253025 21.39377673 -22 16 C-23.28515625 13.76953125 -23.28515625 13.76953125 -24 12 C-22.67015594 10.16957972 -21.3099864 8.36116748 -19.9375 6.5625 C-19.18339844 5.55316406 -18.42929688 4.54382813 -17.65234375 3.50390625 C-12.780541 -1.09524775 -6.33254129 -0.11109722 0 0 Z " fill="#FAFDFE" transform="translate(85,72)"/>
<path d="M0 0 C2.90312925 2.75874627 3.92075109 4.37182512 4.42578125 8.375 C4.38839844 9.57125 4.35101563 10.7675 4.3125 12 C4.28800781 13.19625 4.26351562 14.3925 4.23828125 15.625 C4.03423997 18.51502734 3.65606909 21.18370341 3 24 C1.27054347 23.85764543 -0.45855654 23.71095618 -2.1875 23.5625 C-3.63189453 23.44068359 -3.63189453 23.44068359 -5.10546875 23.31640625 C-6.06066406 23.21199219 -7.01585938 23.10757812 -8 23 C-8.86753906 22.91234375 -9.73507813 22.8246875 -10.62890625 22.734375 C-13.77356227 21.76041235 -14.80881353 20.31153746 -16.75 17.6875 C-17.34296875 16.90761719 -17.9359375 16.12773437 -18.546875 15.32421875 C-19.90950042 13.14475067 -20.56341486 11.51036453 -21 9 C-19.41906946 7.87162591 -17.83515284 6.74743482 -16.25 5.625 C-15.36828125 4.99851562 -14.4865625 4.37203125 -13.578125 3.7265625 C-8.86786653 0.57211668 -5.81004423 -0.72625553 0 0 Z " fill="#FAFDFE" transform="translate(82,8)"/>
<path d="M0 0 C6.04518022 1.99070889 12.03885703 5.53094179 15.5859375 10.8515625 C15.10382812 11.39425781 14.62171875 11.93695313 14.125 12.49609375 C13.49335937 13.21152344 12.86171875 13.92695313 12.2109375 14.6640625 C11.58445312 15.37175781 10.95796875 16.07945313 10.3125 16.80859375 C8.4453385 18.93960069 8.4453385 18.93960069 6.5859375 21.8515625 C4.16015625 22.58203125 4.16015625 22.58203125 1.2734375 23.0390625 C0.32855469 23.19761719 -0.61632813 23.35617188 -1.58984375 23.51953125 C-4.23133852 23.83008043 -6.75779994 23.91446125 -9.4140625 23.8515625 C-10.7377001 16.5715557 -11.97911529 8.4579885 -8.9765625 1.5390625 C-5.67974414 -0.632013 -3.83658526 -0.65005265 0 0 Z " fill="#FAFDFE" transform="translate(38.4140625,8.1484375)"/>
<path d="M0 0 C7.49413074 1.23117862 15.43617074 4.76276668 20 11 C20.75 13.9375 20.75 13.9375 20 17 C16.08344163 21.88660378 10.01238096 25.38854854 4 27 C1.875 26.88671875 1.875 26.88671875 0 26 C-2.67368037 21.80882536 -4.02432281 17.38640036 -3.9375 12.4375 C-2.78947324 8.22806855 -1.47971903 4.10412636 0 0 Z " fill="#FAFDFE" transform="translate(87,38)"/>
<path d="M0 0 C3.5386994 1.65139305 4.81070153 2.71605229 7 6 C7.32399838 10.51105433 6.78910894 14.01959192 3.9375 17.5625 C0.11619903 19.43249834 -2.82601256 19.80950059 -7 19 C-10.00697829 17.46452173 -11.53577667 16.38113648 -12.62890625 13.12890625 C-13.27092057 9.55390019 -13.21701031 7.49912371 -11.75 4.125 C-8.1848005 -0.20417082 -5.39444547 -0.4650384 0 0 Z " fill="#57C4E1" transform="translate(60,42)"/>
<path d="M0 0 C11.47645126 -0.37020811 11.47645126 -0.37020811 13.8671875 1.3203125 C15.60421023 3.89589793 15.32101932 5.98241843 15 9 C14.34 9.66 13.68 10.32 13 11 C13.26676204 12.98491642 13.26676204 12.98491642 14 15 C14.33 15.99 14.66 16.98 15 18 C13.68 18 12.36 18 11 18 C10.525625 17.195625 10.05125 16.39125 9.5625 15.5625 C8.23520082 12.74523291 8.23520082 12.74523291 5.3125 12.1875 C4.549375 12.125625 3.78625 12.06375 3 12 C3 13.98 3 15.96 3 18 C2.01 18 1.02 18 0 18 C0 12.06 0 6.12 0 0 Z " fill="#5DC8E5" transform="translate(21,111)"/>
<path d="M0 0 C2.4375 1.75 2.4375 1.75 4 4 C4 5.32 4 6.64 4 8 C0.37 8 -3.26 8 -7 8 C-6.67 8.66 -6.34 9.32 -6 10 C-3.36 10 -0.72 10 2 10 C2 10.99 2 11.98 2 13 C-0.88861709 14.44430855 -2.79647701 14.37688506 -6 14 C-9.04569423 11.68262395 -10.73181298 10.22174087 -11.5625 6.4375 C-10.10604564 0.12619778 -5.94161222 -0.84880175 0 0 Z " fill="#72CEE7" transform="translate(49,115)"/>
<path d="M0 0 C1.45792884 -0.05399736 2.91642712 -0.09279177 4.375 -0.125 C5.18710937 -0.14820312 5.99921875 -0.17140625 6.8359375 -0.1953125 C9 0 9 0 11 2 C11.1953125 4.8203125 11.1953125 4.8203125 11.125 8.125 C11.10695313 9.22070312 11.08890625 10.31640625 11.0703125 11.4453125 C11.04710938 12.28835937 11.02390625 13.13140625 11 14 C9.37536158 14.05395478 7.75021459 14.09277195 6.125 14.125 C5.22007813 14.14820313 4.31515625 14.17140625 3.3828125 14.1953125 C1 14 1 14 -1 12 C-1.1875 9.4375 -1.1875 9.4375 -1 7 C0 6 0 6 1.84765625 5.90234375 C3.8984375 5.93489583 5.94921875 5.96744792 8 6 C7.34 5.01 6.68 4.02 6 3 C2.41642759 2.74984127 2.41642759 2.74984127 -1 3 C-0.67 2.01 -0.34 1.02 0 0 Z " fill="#69CCE7" transform="translate(56,115)"/>
<path d="M0 0 C0.66 0.99 1.32 1.98 2 3 C-1.1964086 4.06546953 -3.65747276 4.07427838 -7 4 C-7 5.65 -7 7.3 -7 9 C-3.846632 9.70074844 -1.27275026 10 2 10 C1 13 1 13 -1 14 C-5.09236475 14.54564863 -6.53575256 14.35323174 -9.875 11.8125 C-12 9 -12 9 -12.5625 6.4375 C-10.95231329 -0.53997576 -6.14186496 -0.69343637 0 0 Z " fill="#6ECDE7" transform="translate(82,115)"/>
<path d="M0 0 C1.32 0 2.64 0 4 0 C4 0.99 4 1.98 4 3 C5.32 3 6.64 3 8 3 C7.67 3.99 7.34 4.98 7 6 C6.01 6 5.02 6 4 6 C4 8.64 4 11.28 4 14 C5.32 14 6.64 14 8 14 C8 14.99 8 15.98 8 17 C3.49625468 17.36516854 3.49625468 17.36516854 1.34375 15.78125 C-0.39217091 13.48014554 -0.31131194 12.16017456 -0.1875 9.3125 C-0.16042969 8.50425781 -0.13335937 7.69601563 -0.10546875 6.86328125 C-0.07066406 6.24839844 -0.03585938 5.63351563 0 5 C-0.66 5 -1.32 5 -2 5 C-2 4.34 -2 3.68 -2 3 C-1.34 3 -0.68 3 0 3 C0 2.01 0 1.02 0 0 Z " fill="#6ECEE7" transform="translate(87,112)"/>
<path d="M0 0 C5.75 -0.125 5.75 -0.125 8 1 C8 2.98 8 4.96 8 7 C5.29120665 8.35439668 2.99066732 8.06501451 0 8 C0 5.36 0 2.72 0 0 Z " fill="#EEF8FB" transform="translate(24,113)"/>
<path d="M0 0 C1.45792884 -0.05399736 2.91642712 -0.09279177 4.375 -0.125 C5.18710937 -0.14820312 5.99921875 -0.17140625 6.8359375 -0.1953125 C9 0 9 0 11 2 C11.1953125 4.6015625 11.1953125 4.6015625 11.125 7.625 C11.10695313 8.62789062 11.08890625 9.63078125 11.0703125 10.6640625 C11.03550781 11.82035156 11.03550781 11.82035156 11 13 C10.01 12.67 9.02 12.34 8 12 C7.67 9.36 7.34 6.72 7 4 C4.23735711 3.40267181 1.83967231 3 -1 3 C-0.67 2.01 -0.34 1.02 0 0 Z " fill="#5DC7E4" transform="translate(56,115)"/>
<path d="M0 0 C3.35620271 1.38877354 5.07298728 2.91677965 7 6 C7 6.66 7 7.32 7 8 C3.04 8 -0.92 8 -5 8 C-3.47524303 4.95048605 -2.07114674 2.63600494 0 0 Z " fill="#E4F5FA" transform="translate(56,22)"/>
<path d="M0 0 C3.96 0 7.92 0 12 0 C10.21844267 3.56311466 8.83236991 5.35645475 6 8 C4.9970458 6.85675161 3.99770973 5.71032809 3 4.5625 C2.443125 3.92441406 1.88625 3.28632812 1.3125 2.62890625 C0 1 0 1 0 0 Z " fill="#F0F9FC" transform="translate(51,74)"/>
<path d="M0 0 C2.52259061 1.97420135 2.9929808 2.96745642 3.6875 6.1875 C3.790625 7.115625 3.89375 8.04375 4 9 C-0.455 9.495 -0.455 9.495 -5 10 C-3.66511872 6.40608886 -2.03977277 3.24509304 0 0 Z " fill="#F1FAFC" transform="translate(79,58)"/>
<path d="M0 0 C2.61724095 2.36797991 4.32861729 4.89600354 6 8 C6 8.66 6 9.32 6 10 C3.36 10 0.72 10 -2 10 C-3.39195915 5.82412255 -1.82323219 3.86525224 0 0 Z " fill="#EEF9FB" transform="translate(34,58)"/>
<path d="M0 0 C6.75 -0.125 6.75 -0.125 9 1 C8.37240135 3.92879371 7.41377341 6.36095629 6 9 C2.91910327 6.22719294 1.31224548 3.93673644 0 0 Z " fill="#F3FBFC" transform="translate(74,36)"/>
<path d="M0 0 C-1.31224548 3.93673644 -2.91910327 6.22719294 -6 9 C-6.99 6.36 -7.98 3.72 -9 1 C-6.04335481 -0.4783226 -3.25770263 -0.06032783 0 0 Z " fill="#F5FBFD" transform="translate(40,36)"/>
<path d="M0 0 C2.31 0.33 4.62 0.66 7 1 C7.33 2.98 7.66 4.96 8 7 C1.565 7.495 1.565 7.495 -5 8 C-4.67 6.68 -4.34 5.36 -4 4 C-3.67 4.66 -3.34 5.32 -3 6 C-0.36 6 2.28 6 5 6 C5 5.01 5 4.02 5 3 C3.35 2.67 1.7 2.34 0 2 C0 1.34 0 0.68 0 0 Z " fill="#5AC8E5" transform="translate(44,115)"/>
<path d="M0 0 C0 0.99 0 1.98 0 3 C-2.70879335 4.35439668 -5.00933268 4.06501451 -8 4 C-8 3.01 -8 2.02 -8 1 C-2.25 0 -2.25 0 0 0 Z " fill="#66CBE6" transform="translate(51,125)"/>
<path d="M0 0 C1.65 0.33 3.3 0.66 5 1 C5 1.99 5 2.98 5 4 C2.69 4 0.38 4 -2 4 C-1.34 2.68 -0.68 1.36 0 0 Z " fill="#E3F5F9" transform="translate(44,117)"/>
<path d="M0 0 C2.475 0.495 2.475 0.495 5 1 C5.33 1.99 5.66 2.98 6 4 C4.02 4 2.04 4 0 4 C0 2.68 0 1.36 0 0 Z " fill="#DCF2F8" transform="translate(58,117)"/>
<path d="M0 0 C2.875 -0.1875 2.875 -0.1875 6 0 C6.66 0.99 7.32 1.98 8 3 C4.72724974 3 2.153368 2.70074844 -1 2 C-0.67 1.34 -0.34 0.68 0 0 Z " fill="#5EC9E5" transform="translate(76,115)"/>
<path d="M0 0 C1.98 0 3.96 0 6 0 C5.67 0.99 5.34 1.98 5 3 C3.35 3 1.7 3 0 3 C0 2.01 0 1.02 0 0 Z " fill="#F7FCFD" transform="translate(58,123)"/>
</svg>
