<?xml version="1.0" encoding="UTF-8"?>
<svg version="1.1" xmlns="http://www.w3.org/2000/svg" width="246" height="88">
<path d="M0 0 C81.18 0 162.36 0 246 0 C246 29.04 246 58.08 246 88 C164.82 88 83.64 88 0 88 C0 58.96 0 29.92 0 0 Z " fill="#FEFDFD" transform="translate(0,0)"/>
<path d="M0 0 C3.64971056 1.42519689 6.39600629 3.27910428 8.9375 6.3125 C10.33023883 9.83530998 10.46228841 12.2356515 10 16 C7.26114877 21.08643801 4.4898792 24.17004027 -1 26 C-4.12486016 26.30486441 -7.25028111 26.50841216 -10.3828125 26.71875 C-12.92413861 26.71496985 -12.92413861 26.71496985 -14 28 C-14.15740605 29.70563778 -14.25093392 31.41727244 -14.31640625 33.12890625 C-14.35451416 34.06033447 -14.39262207 34.9917627 -14.43188477 35.95141602 C-14.49653931 37.73890259 -14.49653931 37.73890259 -14.5625 39.5625 C-14.706875 43.336875 -14.85125 47.11125 -15 51 C-23.58 51 -32.16 51 -41 51 C-41 41.76 -41 32.52 -41 23 C-40.01 23.33 -39.02 23.66 -38 24 C-31.81714496 24.50472286 -26.19128379 24.79850034 -21 21 C-18.21713564 17.66056277 -16.83864297 14.61915013 -15.6875 10.5 C-13.34003638 3.00080542 -8.04533232 -1.43666649 0 0 Z " fill="#090909" transform="translate(59,20)"/>
<path d="M0 0 C12.24185013 -0.40357748 12.24185013 -0.40357748 17 3 C18 4 18 4 18.1875 6.8125 C18 10 18 10 16.90234375 11.90234375 C15.69269435 14.71438586 16.29943164 15.93697506 17.375 18.75 C17.67148438 19.54921875 17.96796875 20.3484375 18.2734375 21.171875 C18.51320312 21.77515625 18.75296875 22.3784375 19 23 C16.36 23 13.72 23 11 23 C8.56574762 18.03006806 7.65384002 14.65394631 8 9 C8.99 9 9.98 9 11 9 C11 8.01 11 7.02 11 6 C9.68 6 8.36 6 7 6 C7 11.61 7 17.22 7 23 C4.69 23 2.38 23 0 23 C0 15.41 0 7.82 0 0 Z " fill="#0A0A0A" transform="translate(114,34)"/>
<path d="M0 0 C2.31 0 4.62 0 7 0 C7.08132187 2.56314499 7.14064175 5.12368418 7.1875 7.6875 C7.21263672 8.40873047 7.23777344 9.12996094 7.26367188 9.87304688 C7.32668998 14.47336884 6.83905242 17.34385445 4 21 C1.65990972 22.69454813 -0.07507262 23.01277832 -2.9375 23.5 C-6 23 -6 23 -8.875 20.375 C-11 17 -11 17 -11.6875 13.9375 C-10.6929929 9.68824238 -8.57945289 8.34041151 -5 6 C-3.68 6 -2.36 6 -1 6 C-1 7.98 -1 9.96 -1 12 C-1.99 12.33 -2.98 12.66 -4 13 C-4 13.99 -4 14.98 -4 16 C-3.01 16 -2.02 16 -1 16 C-0.67 10.72 -0.34 5.44 0 0 Z " fill="#0C0C0C" transform="translate(183,34)"/>
<path d="M0 0 C2.9375 2.1875 2.9375 2.1875 5 5 C5 6.65 5 8.3 5 10 C1.7 10 -1.6 10 -5 10 C-5 9.01 -5 8.02 -5 7 C-4.01 7 -3.02 7 -2 7 C-2 6.34 -2 5.68 -2 5 C-2.99 5.33 -3.98 5.66 -5 6 C-5 7.65 -5 9.3 -5 11 C-4.195625 11.268125 -3.39125 11.53625 -2.5625 11.8125 C-1.716875 12.204375 -0.87125 12.59625 0 13 C0.33 13.99 0.66 14.98 1 16 C-2.17878694 17.58939347 -4.4956772 17.41576711 -8 17 C-11 14.4375 -11 14.4375 -13 11 C-13.14842915 6.69555461 -12.71117869 4.81576379 -9.875 1.5625 C-6.19933618 -0.43514338 -4.12848931 -0.66350721 0 0 Z " fill="#0B0B0B" transform="translate(205,40)"/>
<path d="M0 0 C3.85254152 0.62898637 5.34714406 1.7117486 8.0625 4.5 C8.55078125 7.734375 8.55078125 7.734375 8.375 11.25 C8.32988281 12.42046875 8.28476563 13.5909375 8.23828125 14.796875 C8.18027344 15.68890625 8.12226563 16.5809375 8.0625 17.5 C6.0825 17.5 4.1025 17.5 2.0625 17.5 C2.0625 13.87 2.0625 10.24 2.0625 6.5 C1.0725 6.5 0.0825 6.5 -0.9375 6.5 C-0.9375 10.13 -0.9375 13.76 -0.9375 17.5 C-2.9175 17.5 -4.8975 17.5 -6.9375 17.5 C-7.04582169 15.41781638 -7.12323541 13.33400871 -7.1875 11.25 C-7.23390625 10.08984375 -7.2803125 8.9296875 -7.328125 7.734375 C-6.9375 4.5 -6.9375 4.5 -5.10546875 2.109375 C-2.9375 0.5 -2.9375 0.5 0 0 Z " fill="#030303" transform="translate(160.9375,39.5)"/>
<path d="M0 0 C3.48334083 0.5805568 5.34366734 1.14724821 8 3.5 C8.8125 7.1875 8.8125 7.1875 9 10.5 C6.03 10.5 3.06 10.5 0 10.5 C0 9.51 0 8.52 0 7.5 C0.66 7.17 1.32 6.84 2 6.5 C1.01 6.5 0.02 6.5 -1 6.5 C-1 8.15 -1 9.8 -1 11.5 C-0.030625 11.768125 0.93875 12.03625 1.9375 12.3125 C2.948125 12.704375 3.95875 13.09625 5 13.5 C5.33 14.49 5.66 15.48 6 16.5 C2.97234933 17.16621507 0.10553457 17.60905723 -3 17.5 C-6.0625 15.5 -6.0625 15.5 -8 12.5 C-8.625 9 -8.625 9 -8 5.5 C-5.54597925 2.1076772 -4.16402963 0.69400494 0 0 Z " fill="#080808" transform="translate(142,39.5)"/>
<path d="M0 0 C2.0625 0.4375 2.0625 0.4375 4 1 C3.01 1.33 2.02 1.66 1 2 C1 2.99 1 3.98 1 5 C3.97 5 6.94 5 10 5 C10.33 3.68 10.66 2.36 11 1 C11.66 1.33 12.32 1.66 13 2 C13 5.3 13 8.6 13 12 C14.98 12 16.96 12 19 12 C19 8.37 19 4.74 19 1 C19.99 1 20.98 1 22 1 C22 4.63 22 8.26 22 12 C16.12116651 14.61281488 10.29268272 14.18328202 4 14 C4 13.01 4 12.02 4 11 C4.66 10.67 5.32 10.34 6 10 C5.10664203 7.64214682 5.10664203 7.64214682 1.9375 6.875 C0.4834375 6.441875 0.4834375 6.441875 -1 6 C-1.042721 4.33388095 -1.04063832 2.66617115 -1 1 C-0.67 0.67 -0.34 0.34 0 0 Z " fill="#E7E7E7" transform="translate(141,45)"/>
<path d="M0 0 C0 1.98 0 3.96 0 6 C-0.99 6 -1.98 6 -3 6 C-3 9.63 -3 13.26 -3 17 C-5.31 17 -7.62 17 -10 17 C-10.61802575 6.2360515 -10.61802575 6.2360515 -8.375 1.75 C-5.39126838 -0.44853908 -3.6251765 -0.41195187 0 0 Z " fill="#141414" transform="translate(222,40)"/>
<path d="M0 0 C1.32 0 2.64 0 4 0 C4 0.99 4 1.98 4 3 C3.01 3 2.02 3 1 3 C1.13277344 3.59167969 1.26554687 4.18335938 1.40234375 4.79296875 C2.31005178 8.85446525 3.2091113 12.91374171 4 17 C5.32 17.33 6.64 17.66 8 18 C2.375 19.125 2.375 19.125 -1 18 C-0.505 9.09 -0.505 9.09 0 0 Z " fill="#F8F8F8" transform="translate(121,40)"/>
<path d="M0 0 C0.99 0 1.98 0 3 0 C3 3.63 3 7.26 3 11 C1.02 11.66 -0.96 12.32 -3 13 C-3.66 12.34 -4.32 11.68 -5 11 C-3.35 11 -1.7 11 0 11 C0 7.37 0 3.74 0 0 Z " fill="#DBDBDB" transform="translate(160,46)"/>
<path d="M0 0 C0.33 0 0.66 0 1 0 C1 3.3 1 6.6 1 10 C-0.32 10.33 -1.64 10.66 -3 11 C-3.33 9.68 -3.66 8.36 -4 7 C-2.68 6.67 -1.36 6.34 0 6 C0 4.02 0 2.04 0 0 Z " fill="#CACACA" transform="translate(182,40)"/>
<path d="M0 0 C1.32 0 2.64 0 4 0 C4 0.99 4 1.98 4 3 C3.01 3 2.02 3 1 3 C1.185625 4.19625 1.37125 5.3925 1.5625 6.625 C2.0311197 10.28283707 1.81481013 13.37862166 1 17 C0.67 17 0.34 17 0 17 C0 11.39 0 5.78 0 0 Z " fill="#CFCFCF" transform="translate(121,40)"/>
</svg>
