<?xml version="1.0" encoding="UTF-8"?>
<svg version="1.1" xmlns="http://www.w3.org/2000/svg" width="251" height="98">
<path d="M0 0 C82.83 0 165.66 0 251 0 C251 32.34 251 64.68 251 98 C168.17 98 85.34 98 0 98 C0 65.66 0 33.32 0 0 Z " fill="#FEFDFD" transform="translate(0,0)"/>
<path d="M0 0 C3.16451682 2.91747756 5.23294119 5.81536131 7.328125 9.56640625 C7.95477051 10.67790039 8.58141602 11.78939453 9.22705078 12.93457031 C9.55610413 13.52484009 9.88515747 14.11510986 10.22418213 14.7232666 C11.99186728 17.89262605 13.78208809 21.04922946 15.5703125 24.20703125 C16.12131119 25.18166824 16.12131119 25.18166824 16.68344116 26.17599487 C20.40962307 32.7531646 24.25589652 39.25583967 28.125 45.75 C33.44493833 54.69209387 38.74636544 63.6438059 44 72.625 C44.60602051 73.6572168 45.21204102 74.68943359 45.83642578 75.75292969 C46.65989502 77.16300293 46.65989502 77.16300293 47.5 78.6015625 C47.9846875 79.42994629 48.469375 80.25833008 48.96875 81.11181641 C50 83 50 83 50 84 C17.33 84 -15.34 84 -49 84 C-44.61021293 75.95205704 -40.1730594 67.95656912 -35.625 60 C-35.28362 59.40238861 -34.94223999 58.80477722 -34.59051514 58.1890564 C-27.45729766 45.71076196 -20.13830394 33.3471448 -12.78173828 20.99951172 C-9.77241159 15.93338569 -6.79486378 10.84853696 -3.82861328 5.75708008 C-1.10797965 1.10797965 -1.10797965 1.10797965 0 0 Z " fill="#010101" transform="translate(56,4)"/>
<path d="M0 0 C0.33 1.32 0.66 2.64 1 4 C1.70125 3.34 2.4025 2.68 3.125 2 C6.51895555 -0.36101255 7.95168576 -0.59037916 12 0 C14.8125 1.25 14.8125 1.25 17 3 C17.33 4.32 17.66 5.64 18 7 C14.7 7 11.4 7 8 7 C8 7.99 8 8.98 8 10 C11.3 9.67 14.6 9.34 18 9 C16.95206337 13.19174654 16.08236365 14.21592961 13 17 C13.99 17.99 14.98 18.98 16 20 C10.21354356 21.25406138 4.51131884 21.11186913 -1.375 21.0625 C-2.39722656 21.05798828 -3.41945312 21.05347656 -4.47265625 21.04882812 C-6.98183194 21.037103 -9.4908849 21.02069176 -12 21 C-11.67112793 20.40380859 -11.34225586 19.80761719 -11.00341797 19.19335938 C-9.24768033 15.35551341 -10.08319692 11.22904574 -10.3203125 7.09375 C-10 4 -10 4 -8.1953125 1.609375 C-5.33908751 -0.48451236 -3.45970033 -0.31451821 0 0 Z " fill="#E5CBCB" transform="translate(191,53)"/>
<path d="M0 0 C2.64 0 5.28 0 8 0 C8.66 1.65 9.32 3.3 10 5 C10.66 3.35 11.32 1.7 12 0 C14.31 0 16.62 0 19 0 C18.28613704 4.88947235 16.43937585 9.21644652 14.5625 13.75 C14.24990234 14.52988281 13.93730469 15.30976562 13.61523438 16.11328125 C13.31037109 16.85449219 13.00550781 17.59570312 12.69140625 18.359375 C12.41498291 19.03452148 12.13855957 19.70966797 11.85375977 20.40527344 C11 22 11 22 9 23 C7.49414477 19.54418685 5.99631711 16.08495247 4.5 12.625 C4.07074219 11.64015625 3.64148438 10.6553125 3.19921875 9.640625 C2.79316406 8.69960938 2.38710937 7.75859375 1.96875 6.7890625 C1.59169922 5.91975098 1.21464844 5.05043945 0.82617188 4.15478516 C0 2 0 2 0 0 Z " fill="#060606" transform="translate(141,47)"/>
<path d="M0 0 C2.8125 1.25 2.8125 1.25 5 3 C5.33 4.32 5.66 5.64 6 7 C2.7 7 -0.6 7 -4 7 C-4 7.99 -4 8.98 -4 10 C-0.7 9.67 2.6 9.34 6 9 C5.0372358 12.8510568 4.81942585 13.63168228 2 16 C-0.88861709 17.44430855 -2.79647701 17.37688506 -6 17 C-8.87459336 15.00028288 -10.62907801 13.51060972 -11.484375 10.02734375 C-11.73645855 6.28110213 -11.30563428 4.35956975 -8.875 1.5 C-5.50604479 -0.25771576 -3.74917903 -0.54675527 0 0 Z " fill="#0A0A0A" transform="translate(203,53)"/>
<path d="M0 0 C3.23607887 1.10485529 4.50822712 2.75060531 6.09375 5.71484375 C6.09375 7.03484375 6.09375 8.35484375 6.09375 9.71484375 C2.79375 9.71484375 -0.50625 9.71484375 -3.90625 9.71484375 C-3.90625 8.72484375 -3.90625 7.73484375 -3.90625 6.71484375 C-2.91625 6.71484375 -1.92625 6.71484375 -0.90625 6.71484375 C-0.90625 6.05484375 -0.90625 5.39484375 -0.90625 4.71484375 C-2.88625 5.70484375 -2.88625 5.70484375 -4.90625 6.71484375 C-4.79318303 8.67378736 -4.79318303 8.67378736 -3.90625 10.71484375 C-1.41590614 12.01144809 -1.41590614 12.01144809 1.09375 12.71484375 C1.09375 14.03484375 1.09375 15.35484375 1.09375 16.71484375 C-6.26821319 17.2056413 -6.26821319 17.2056413 -9.34375 14.83984375 C-11.94098593 11.30760288 -12.4243245 9.11847698 -11.90625 4.71484375 C-8.56322858 -0.35360809 -5.67094864 -0.99241601 0 0 Z " fill="#0B0B0B" transform="translate(172.90625,53.28515625)"/>
<path d="M0 0 C3.23607887 1.10485529 4.50822712 2.75060531 6.09375 5.71484375 C6.09375 7.03484375 6.09375 8.35484375 6.09375 9.71484375 C2.79375 9.71484375 -0.50625 9.71484375 -3.90625 9.71484375 C-3.90625 8.72484375 -3.90625 7.73484375 -3.90625 6.71484375 C-2.91625 6.71484375 -1.92625 6.71484375 -0.90625 6.71484375 C-0.90625 6.05484375 -0.90625 5.39484375 -0.90625 4.71484375 C-2.88625 5.70484375 -2.88625 5.70484375 -4.90625 6.71484375 C-4.79318303 8.67378736 -4.79318303 8.67378736 -3.90625 10.71484375 C-2.25420544 11.41696269 -0.58701231 12.08455788 1.09375 12.71484375 C1.42375 13.70484375 1.75375 14.69484375 2.09375 15.71484375 C-0.91864597 16.30702415 -3.83074467 16.76256711 -6.90625 16.71484375 C-9.45776968 14.86499198 -10.51601715 13.49530945 -11.90625 10.71484375 C-12.4333736 6.76141673 -12.1906738 5.14606693 -9.96875 1.77734375 C-6.22915053 -0.74116201 -4.33767109 -0.75909244 0 0 Z " fill="#0A0A0A" transform="translate(222.90625,53.28515625)"/>
<path d="M0 0 C1.98 0 3.96 0 6 0 C6 7.59 6 15.18 6 23 C4.02 23 2.04 23 0 23 C0 15.41 0 7.82 0 0 Z " fill="#000000" transform="translate(231,47)"/>
<path d="M0 0 C1.5 1.375 1.5 1.375 3 3 C3 3.66 3 4.32 3 5 C4.45817797 5.16802051 5.9165484 5.33437143 7.375 5.5 C8.59316406 5.63921875 8.59316406 5.63921875 9.8359375 5.78125 C11.96912825 6.03352351 11.96912825 6.03352351 14 6 C15.625 8 15.625 8 17 10 C12.54210138 10.85465848 8.28748549 11.16336444 3.75 11.1875 C2.52796875 11.20167969 1.3059375 11.21585938 0.046875 11.23046875 C-3 11 -3 11 -5 9 C-5.66 8.01 -6.32 7.02 -7 6 C-6.38125 5.9175 -5.7625 5.835 -5.125 5.75 C-2.82618538 5.19392091 -2.82618538 5.19392091 -1.8125 3 C-1.544375 2.34 -1.27625 1.68 -1 1 C-0.67 0.67 -0.34 0.34 0 0 Z " fill="#F6D3D3" transform="translate(210,63)"/>
<path d="M0 0 C0 1.98 0 3.96 0 6 C-0.99 6.495 -0.99 6.495 -2 7 C-2.46751788 9.35599235 -2.46751788 9.35599235 -2.625 12.0625 C-2.69976562 12.98160156 -2.77453125 13.90070313 -2.8515625 14.84765625 C-2.90054688 15.55792969 -2.94953125 16.26820312 -3 17 C-4.98 17 -6.96 17 -9 17 C-9.10832169 14.91781638 -9.18573541 12.83400871 -9.25 10.75 C-9.29640625 9.58984375 -9.3428125 8.4296875 -9.390625 7.234375 C-9 4 -9 4 -7.15625 1.59375 C-4.5589853 -0.32596739 -3.15813287 -0.35090365 0 0 Z " fill="#060606" transform="translate(190,53)"/>
<path d="M0 0 C2.00841268 0.01421885 4.01537247 0.13420475 6.01953125 0.265625 C6.34953125 1.255625 6.67953125 2.245625 7.01953125 3.265625 C2.95584446 4.03966058 -0.84472048 4.3640952 -4.98046875 4.265625 C-3.72152968 1.74774686 -2.88459378 0.38688832 0 0 Z " fill="#FFAAAA" transform="translate(167.98046875,69.734375)"/>
<path d="M0 0 C1.625 2 1.625 2 3 4 C-2.75 5 -2.75 5 -5 5 C-6.625 3 -6.625 3 -8 1 C-2.25 0 -2.25 0 0 0 Z " fill="#F6B1B1" transform="translate(224,69)"/>
<path d="M0 0 C6.52307692 -0.36923077 6.52307692 -0.36923077 8.9375 1.5 C9.288125 1.995 9.63875 2.49 10 3 C4.25 4 4.25 4 2 4 C1.34 2.68 0.68 1.36 0 0 Z " fill="#FFB2B2" transform="translate(197,70)"/>
<path d="M0 0 C0 0.99 0 1.98 0 3 C-5.75 4.125 -5.75 4.125 -8 3 C-5.53387212 -0.1151089 -3.89156016 -0.31553191 0 0 Z " fill="#FFA7A7" transform="translate(187,70)"/>
<path d="M0 0 C2.375 -0.1875 2.375 -0.1875 5 0 C5.66 0.99 6.32 1.98 7 3 C1.25 4.125 1.25 4.125 -1 3 C-0.67 2.01 -0.34 1.02 0 0 Z " fill="#FFA5A5" transform="translate(232,70)"/>
<path d="M0 0 C0.33 0.66 0.66 1.32 1 2 C1.99 2.33 2.98 2.66 4 3 C1.64561267 4.42944945 0.51967567 5.08661261 -2.25 4.625 C-2.8275 4.41875 -3.405 4.2125 -4 4 C-2.68 2.68 -1.36 1.36 0 0 Z " fill="#F28F8F" transform="translate(151,69)"/>
</svg>
