<?xml version="1.0" encoding="UTF-8"?>
<svg version="1.1" xmlns="http://www.w3.org/2000/svg" width="146" height="82">
<path d="M0 0 C48.18 0 96.36 0 146 0 C146 27.06 146 54.12 146 82 C97.82 82 49.64 82 0 82 C0 54.94 0 27.88 0 0 Z " fill="#FDFDFD" transform="translate(0,0)"/>
<path d="M0 0 C9.06313636 1.068927 18.03596504 2.2569932 27 4 C26.67 10.93 26.34 17.86 26 25 C28.97 24.67 31.94 24.34 35 24 C34.67 27.96 34.34 31.92 34 36 C36.97 35.505 36.97 35.505 40 35 C39.37679879 41.43974581 38.35991738 47.67572401 37 54 C37.66 54 38.32 54 39 54 C39.24024902 53.19353027 39.48049805 52.38706055 39.72802734 51.55615234 C41.28053711 47.2156807 43.27121564 43.20926923 45.3515625 39.1015625 C45.77045746 38.26660248 46.18935242 37.43164246 46.62094116 36.57138062 C47.95186436 33.92067567 49.28834106 31.27281647 50.625 28.625 C51.5316188 26.82179996 52.4378728 25.01841646 53.34375 23.21484375 C55.55828184 18.80776041 57.77779658 14.40321971 60 10 C55.545 10.495 55.545 10.495 51 11 C51.33 8.69 51.66 6.38 52 4 C59.22495986 1.19029339 67.25152117 -0.19904349 75 0 C74.56830258 6.05357515 71.78145922 10.34828265 68.75 15.4375 C67.65421871 17.31467869 66.55919358 19.19229894 65.46484375 21.0703125 C64.89491699 22.04258789 64.32499023 23.01486328 63.73779297 24.01660156 C60.880923 28.92120271 58.0979851 33.86712033 55.3125 38.8125 C54.23179994 40.72657893 53.15107133 42.64064175 52.0703125 44.5546875 C48.04047233 51.69952608 44.01715019 58.84801943 40 66 C38.68 66 37.36 66 36 66 C35.68885254 65.45287354 35.37770508 64.90574707 35.05712891 64.34204102 C29.79511017 55.09537066 24.53161345 45.8505976 19.125 36.6875 C18.73860352 36.03056152 18.35220703 35.37362305 17.95410156 34.69677734 C16.04707046 31.4575728 14.13315011 28.22283446 12.20507812 24.99609375 C10.25424383 21.73095115 8.3143329 18.45948392 6.375 15.1875 C5.74609863 14.14231201 5.11719727 13.09712402 4.46923828 12.02026367 C3.88899902 11.03775635 3.30875977 10.05524902 2.7109375 9.04296875 C2.18806152 8.16664795 1.66518555 7.29032715 1.12646484 6.38745117 C0 4 0 4 0 0 Z " fill="#9076FB" transform="translate(6,14)"/>
<path d="M0 0 C-1.56752937 6.36416924 -3.14264467 12.71356657 -5 19 C-2.03 18.67 0.94 18.34 4 18 C2.42734187 23.27911062 0.12716899 28.00410848 -2.3515625 32.8984375 C-2.77045746 33.73339752 -3.18935242 34.56835754 -3.62094116 35.42861938 C-4.95186436 38.07932433 -6.28834106 40.72718353 -7.625 43.375 C-8.5316188 45.17820004 -9.4378728 46.98158354 -10.34375 48.78515625 C-12.55828184 53.19223959 -14.77779658 57.59678029 -17 62 C-17.66 62 -18.32 62 -19 62 C-18.48446121 55.50149789 -17.53332291 49.33773468 -16 43 C-18.97 43.495 -18.97 43.495 -22 44 C-21.67 40.04 -21.34 36.08 -21 32 C-25.455 32.495 -25.455 32.495 -30 33 C-30.1598655 23.62122392 -29.66433182 14.34809779 -29 5 C-23.82877807 3.43089572 -18.69744863 2.29655471 -13.375 1.375 C-12.63765625 1.2409375 -11.9003125 1.106875 -11.140625 0.96875 C-7.38003137 0.30828732 -3.83548404 -0.16676018 0 0 Z " fill="#FDC721" transform="translate(62,6)"/>
<path d="M0 0 C2.64 0 5.28 0 8 0 C8.33 1.65 8.66 3.3 9 5 C9.66 5 10.32 5 11 5 C11.33 3.35 11.66 1.7 12 0 C14.64 0 17.28 0 20 0 C17.03 7.59 14.06 15.18 11 23 C10.34 23 9.68 23 9 23 C7.4971858 19.35532029 5.99822067 15.70907012 4.5 12.0625 C4.07074219 11.02158203 3.64148438 9.98066406 3.19921875 8.90820312 C2.79316406 7.91884766 2.38710937 6.92949219 1.96875 5.91015625 C1.59169922 4.99371338 1.21464844 4.07727051 0.82617188 3.13305664 C0 1 0 1 0 0 Z " fill="#070707" transform="translate(80,48)"/>
<path d="M0 0 C3.48334083 0.5805568 5.34366734 1.14724821 8 3.5 C8.8125 7.1875 8.8125 7.1875 9 10.5 C6.03 10.5 3.06 10.5 0 10.5 C0 9.51 0 8.52 0 7.5 C0.66 7.17 1.32 6.84 2 6.5 C1.01 6.5 0.02 6.5 -1 6.5 C-1 8.15 -1 9.8 -1 11.5 C-0.030625 11.768125 0.93875 12.03625 1.9375 12.3125 C2.948125 12.704375 3.95875 13.09625 5 13.5 C5.33 14.49 5.66 15.48 6 16.5 C2.97234933 17.16621507 0.10553457 17.60905723 -3 17.5 C-6.0625 15.5 -6.0625 15.5 -8 12.5 C-8.625 9 -8.625 9 -8 5.5 C-5.54597925 2.1076772 -4.16402963 0.69400494 0 0 Z " fill="#080808" transform="translate(130,53.5)"/>
<path d="M0 0 C1.98 0 3.96 0 6 0 C6 1.98 6 3.96 6 6 C6.99 6 7.98 6 9 6 C9 7.98 9 9.96 9 12 C8.01 12 7.02 12 6 12 C6.33 12.99 6.66 13.98 7 15 C7.66 15.33 8.32 15.66 9 16 C9 18.31 9 20.62 9 23 C3.5971564 22.51974724 3.5971564 22.51974724 1.3125 20.53125 C-0.68666527 16.67571698 -0.31762344 13.02071809 -0.1875 8.75 C-0.17396484 7.90953125 -0.16042969 7.0690625 -0.14648438 6.203125 C-0.11123464 4.13514062 -0.0574302 2.06748729 0 0 Z " fill="#0B0B0B" transform="translate(111,48)"/>
<path d="M0 0 C2.31 0 4.62 0 7 0 C7 5.61 7 11.22 7 17 C4.69 17 2.38 17 0 17 C0 11.39 0 5.78 0 0 Z " fill="#141414" transform="translate(101,54)"/>
<path d="M0 0 C-0.66 1.65 -1.32 3.3 -2 5 C-2.33 4.34 -2.66 3.68 -3 3 C-3.99 3.495 -3.99 3.495 -5 4 C-7.37402501 4.07116382 -9.75000677 4.08409085 -12.125 4.0625 C-13.40632813 4.05347656 -14.68765625 4.04445313 -16.0078125 4.03515625 C-16.99523438 4.02355469 -17.98265625 4.01195312 -19 4 C-19 4.66 -19 5.32 -19 6 C-20.670625 6.2784375 -20.670625 6.2784375 -22.375 6.5625 C-23.57125 7.036875 -24.7675 7.51125 -26 8 C-27.54086322 11.51400668 -27.54086322 11.51400668 -28 15 C-28.33 15 -28.66 15 -29 15 C-29 11.7 -29 8.4 -29 5 C-23.82877807 3.43089572 -18.69744863 2.29655471 -13.375 1.375 C-12.63765625 1.2409375 -11.9003125 1.106875 -11.140625 0.96875 C-7.38003137 0.30828732 -3.83548404 -0.16676018 0 0 Z " fill="#FEE65D" transform="translate(62,6)"/>
<path d="M0 0 C2.125 0.375 2.125 0.375 4 1 C4 2.32 4 3.64 4 5 C2.68 5.33 1.36 5.66 0 6 C-0.66 4.68 -1.32 3.36 -2 2 C-1.34 1.34 -0.68 0.68 0 0 Z " fill="#131313" transform="translate(103,46)"/>
</svg>
